G04 ================== begin FILE IDENTIFICATION RECORD ==================*
G04 Layout Name:  C:/project/allegro/SENSOR BOARD.brd*
G04 Film Name:    BOTTOM*
G04 File Format:  Gerber RS274X*
G04 File Origin:  Cadence Allegro 16.6-2015-S108*
G04 Origin Date:  Tue Oct 16 21:29:55 2018*
G04 *
G04 Layer:  ETCH/BOTTOM*
G04 Layer:  PIN/BOTTOM*
G04 Layer:  VIA CLASS/BOTTOM*
G04 *
G04 Offset:    (0.0000 0.0000)*
G04 Mirror:    No*
G04 Mode:      Positive*
G04 Rotation:  0*
G04 FullContactRelief:  No*
G04 UndefLineWidth:     0.1000*
G04 ================== end FILE IDENTIFICATION RECORD ====================*
%FSLAX25Y25*MOMM*%
%IR0*IPPOS*OFA0.00000B0.00000*MIA0B0*SFA1.00000B1.00000*%
%ADD10C,.635*%
%ADD12C,.6096*%
%ADD13C,1.016*%
%ADD11C,1.524*%
%ADD14C,.1016*%
%ADD16C,.864*%
%ADD17C,1.2704*%
%ADD15C,1.7784*%
G75*
%LPD*%
G75*
G36*
G01X508020Y0D02*
Y508020D01*
X0D01*
Y6491980D01*
X508020D01*
Y7000000D01*
X6491980D01*
Y6491980D01*
X7000000D01*
Y508020D01*
X6491980D01*
Y0D01*
X508020D01*
G37*
%LPC*%
G75*
G36*
G01X6395700Y4769870D02*
X6459200Y4833370D01*
Y5580630D01*
X6342630Y5697200D01*
X3182370D01*
X3065800Y5580630D01*
Y5098130D01*
X3044000Y5076330D01*
X3044880Y5073420D01*
G02X3015920Y5102380I-41380J-12420D01*
G01X3018830Y5101500D01*
X3030200Y5112870D01*
Y5595370D01*
X3167630Y5732800D01*
X6357370D01*
X6494800Y5595370D01*
Y4818630D01*
X6431300Y4755130D01*
Y4738360D01*
G02X6395700I-17800J-39360D01*
G01Y4769870D01*
G37*
G36*
G01X3571330Y4295000D02*
X3739130Y4462800D01*
X6088630D01*
X6215630Y4589800D01*
X6247140D01*
G02Y4554200I39360J-17800D01*
G01X6230370D01*
X6103370Y4427200D01*
X3753870D01*
X3596500Y4269830D01*
X3597380Y4266920D01*
G02X3568420Y4295880I-41380J-12420D01*
G01X3571330Y4295000D01*
G37*
G36*
G01X6723630Y4018300D02*
X6776700Y4071370D01*
Y6152130D01*
X6660130Y6268700D01*
X5834630D01*
X5745600Y6357720D01*
X5742360Y6356180D01*
G02X5772320Y6386140I-27360J57320D01*
G01X5770780Y6382900D01*
X5849370Y6304300D01*
X6674870D01*
X6812300Y6166870D01*
Y4056630D01*
X6738370Y3982700D01*
X5373360D01*
G02Y4018300I-39360J17800D01*
G01X6723630D01*
G37*
G36*
G01X2580500Y4620170D02*
X2811800Y4388870D01*
Y4007870D01*
X2864870Y3954800D01*
X3167630D01*
X3294630Y4081800D01*
X4723140D01*
G02Y4046200I39360J-17800D01*
G01X3309370D01*
X3182370Y3919200D01*
X2850130D01*
X2776200Y3993130D01*
Y4374130D01*
X2555330Y4595000D01*
X2552420Y4594120D01*
G02X2581380Y4623080I-12420J41380D01*
G01X2580500Y4620170D01*
G37*
G36*
G01X6748800Y4183630D02*
X6674870Y4109700D01*
X5277870D01*
X5224800Y4056630D01*
Y3912860D01*
G02X5189200I-17800J-39360D01*
G01Y4071370D01*
X5263130Y4145300D01*
X6660130D01*
X6713200Y4198370D01*
Y6088630D01*
X6596630Y6205200D01*
X5644130D01*
X5570200Y6279130D01*
Y6547870D01*
X5659220Y6636900D01*
X5657680Y6640140D01*
G02X5684470Y6611800I57325J27357D01*
G01X5605800Y6533130D01*
Y6293870D01*
X5658870Y6240800D01*
X6611370D01*
X6748800Y6103370D01*
Y4183630D01*
G37*
G36*
G01X6685300Y4374130D02*
X6611370Y4300200D01*
X5150870D01*
X5097800Y4247130D01*
Y3817370D01*
X5150870Y3764300D01*
X5199630D01*
X5263130Y3827800D01*
X5294640D01*
G02Y3792200I39360J-17800D01*
G01X5277870D01*
X5214370Y3728700D01*
X5136130D01*
X5062200Y3802630D01*
Y4261870D01*
X5136130Y4335800D01*
X6596630D01*
X6649700Y4388870D01*
Y6025130D01*
X6533130Y6141700D01*
X5517130D01*
X5443200Y6215630D01*
Y6352420D01*
X5439810Y6353620D01*
G02X5482190I21190J59880D01*
G01X5478800Y6352420D01*
Y6230370D01*
X5531870Y6177300D01*
X6547870D01*
X6685300Y6039870D01*
Y4374130D01*
G37*
G36*
G01X294500Y3667670D02*
X324870Y3637300D01*
X832870D01*
X959870Y3510300D01*
X1040140D01*
G02Y3474700I39360J-17800D01*
G01X945130D01*
X818130Y3601700D01*
X310130D01*
X269330Y3642500D01*
X266420Y3641620D01*
G02X295380Y3670580I-12420J41380D01*
G01X294500Y3667670D01*
G37*
G36*
G01X4683670Y3261500D02*
X4579370Y3157200D01*
X3817370D01*
X3764300Y3104130D01*
Y2977130D01*
X3690370Y2903200D01*
X3595360D01*
G02Y2938800I-39360J17800D01*
G01X3675630D01*
X3728700Y2991870D01*
Y3118870D01*
X3802630Y3192800D01*
X4564630D01*
X4658500Y3286670D01*
X4657620Y3289580D01*
G02X4686580Y3260620I41380J12420D01*
G01X4683670Y3261500D01*
G37*
G36*
G01X2811800Y2659630D02*
Y2452360D01*
G02X2776200I-17800J-39360D01*
G01Y2674370D01*
X2850130Y2748300D01*
X3516640D01*
G02Y2712700I39360J-17800D01*
G01X2864870D01*
X2811800Y2659630D01*
G37*
G36*
G01X463800Y2260360D02*
G02X428200I-17800J-39360D01*
G01Y2421870D01*
X564130Y2557800D01*
X976640D01*
G02Y2522200I39360J-17800D01*
G01X578870D01*
X463800Y2407130D01*
Y2260360D01*
G37*
G36*
G01X4515870Y1633200D02*
X3595360D01*
G02Y1668800I-39360J17800D01*
G01X4501130D01*
X4617700Y1785370D01*
Y2991870D01*
X4808200Y3182370D01*
Y3199140D01*
G02X4843800I17800J39360D01*
G01Y3167630D01*
X4653300Y2977130D01*
Y1770630D01*
X4515870Y1633200D01*
G37*
G36*
G01X2452360Y2649200D02*
G02Y2684800I-39360J17800D01*
G01X2659630D01*
X2786630Y2811800D01*
X3294630D01*
X3347700Y2864870D01*
Y3298000D01*
G03X3330360Y3305180I-10158J-4D01*
G01X3309370Y3284200D01*
X2452360D01*
G02Y3319800I-39360J17800D01*
G01X3294630D01*
X3548630Y3573800D01*
X5548640D01*
G02Y3538200I39360J-17800D01*
G01X5373800D01*
G03X5366220Y3521270I-1J-10161D01*
G02X5375380Y3480080I-32218J-28778D01*
G01X5374500Y3477170D01*
X5404870Y3446800D01*
X6723630D01*
X6840200Y3563370D01*
Y6215630D01*
X6660130Y6395700D01*
X6030080D01*
X6028880Y6392310D01*
G02Y6434690I-59880J21190D01*
G01X6030080Y6431300D01*
X6674870D01*
X6875800Y6230370D01*
Y3548630D01*
X6738370Y3411200D01*
X5390130D01*
X5349330Y3452000D01*
X5346420Y3451120D01*
G02X5301780Y3521270I-12417J41377D01*
G03X5294200Y3538200I-7579J6769D01*
G01X3563370D01*
X3489320Y3464140D01*
G03X3496500Y3446800I7184J-7182D01*
G01X4596140D01*
G02Y3411200I39360J-17800D01*
G01X3499870D01*
X3383300Y3294630D01*
Y2850130D01*
X3309370Y2776200D01*
X2801370D01*
X2674370Y2649200D01*
X2452360D01*
G37*
G36*
G01X1594870Y4236700D02*
X1199130D01*
X1125200Y4310630D01*
Y4564630D01*
X1072130Y4617700D01*
X246630D01*
X172700Y4691630D01*
Y4960370D01*
X243250Y5030920D01*
X241210Y5034320D01*
G02X271820Y5003710I76290J45680D01*
G01X268420Y5005750D01*
X208300Y4945630D01*
Y4706370D01*
X261370Y4653300D01*
X1086870D01*
X1160800Y4579370D01*
Y4325370D01*
X1213870Y4272300D01*
X1580130D01*
X1633200Y4325370D01*
Y4469140D01*
G02Y4547860I17800J39360D01*
G01Y4833370D01*
X1707130Y4907300D01*
X2599500D01*
G03X2606680Y4924640I-4J10158D01*
G01X2596130Y4935200D01*
X1658370D01*
X1541800Y4818630D01*
Y4420860D01*
G02X1506200I-17800J-39360D01*
G01Y4681200D01*
X437130D01*
X366580Y4751750D01*
X363180Y4749710D01*
G02X393790Y4780320I-45680J76290D01*
G01X391750Y4776920D01*
X451870Y4716800D01*
X1506200D01*
Y4833370D01*
X1643630Y4970800D01*
X2610870D01*
X2864870Y4716800D01*
X3516200D01*
G03X3523780Y4733730I1J10161D01*
G02X3538200Y4801860I32222J28771D01*
G01Y5214370D01*
X3675630Y5351800D01*
X5040640D01*
G02Y5316200I39360J-17800D01*
G01X3690370D01*
X3573800Y5199630D01*
Y4801860D01*
G02X3588220Y4733730I-17802J-39359D01*
G03X3595800Y4716800I7579J-6769D01*
G01X4556670D01*
X4577070Y4696400D01*
X4579980Y4697280D01*
G02X4551020Y4668320I12420J-41380D01*
G01X4551900Y4671230D01*
X4541930Y4681200D01*
X3468800D01*
G03X3461220Y4664270I-1J-10161D01*
G02X3396780I-32220J-28770D01*
G03X3389200Y4681200I-7579J6769D01*
G01X2861500D01*
G03X2854320Y4663860I4J-10158D01*
G01X2991870Y4526300D01*
X3421630D01*
X3548630Y4653300D01*
X4452370D01*
X4515870Y4589800D01*
X4643370D01*
X4646070Y4592500D01*
X4662340D01*
G02X4664880Y4552110I39361J-17800D01*
G01X4664560Y4552620D01*
X4660550Y4556640D01*
X4658110Y4554200D01*
X4501130D01*
X4437630Y4617700D01*
X3563370D01*
X3436370Y4490700D01*
X2977130D01*
X2596130Y4871700D01*
X1721870D01*
X1668800Y4818630D01*
Y4547860D01*
G02Y4469140I-17800J-39360D01*
G01Y4310630D01*
X1594870Y4236700D01*
G37*
G36*
G01X3573800Y928360D02*
G02X3538200I-17800J-39360D01*
G01Y945130D01*
X3411200Y1072130D01*
Y2039370D01*
X3538200Y2166370D01*
Y2246640D01*
G02X3516640Y2268200I17800J39360D01*
G01X3372870D01*
X3309370Y2204700D01*
X2659630D01*
X2204700Y2659630D01*
Y3436370D01*
X2405630Y3637300D01*
X2754640D01*
G02X2806420Y3660880I39364J-17798D01*
G01X2809330Y3660000D01*
X2977130Y3827800D01*
X3690370D01*
X3817370Y3700800D01*
X5390130D01*
X5453630Y3764300D01*
X5785870D01*
X5854470Y3695700D01*
X5861040D01*
G02Y3660100I39360J-17800D01*
G01X5839730D01*
X5771130Y3728700D01*
X5468370D01*
X5404870Y3665200D01*
X3802630D01*
X3675630Y3792200D01*
X2991870D01*
X2834500Y3634830D01*
X2835380Y3631920D01*
G02X2754640Y3601700I-41376J-12423D01*
G01X2420370D01*
X2240300Y3421630D01*
Y2674370D01*
X2250860Y2663820D01*
G03X2268200Y2671000I7182J7184D01*
G01Y3309370D01*
X2469130Y3510300D01*
X2850130D01*
X2944000Y3604170D01*
X2943120Y3607080D01*
G02X3023860Y3637300I41376J12423D01*
G01X3040630D01*
X3167630Y3764300D01*
X3436370D01*
X3563370Y3637300D01*
X5453630D01*
X5517130Y3700800D01*
X5658870D01*
X5763170Y3596500D01*
X5766080Y3597380D01*
G02X5737120Y3568420I12420J-41380D01*
G01X5738000Y3571330D01*
X5644130Y3665200D01*
X5531870D01*
X5468370Y3601700D01*
X3548630D01*
X3421630Y3728700D01*
X3182370D01*
X3055370Y3601700D01*
X3023860D01*
G02X2972080Y3578120I-39364J17798D01*
G01X2969170Y3579000D01*
X2864870Y3474700D01*
X2483870D01*
X2303800Y3294630D01*
Y2674370D01*
X2610870Y2367300D01*
X2674370D01*
X2737870Y2303800D01*
X3231130D01*
X3358130Y2430800D01*
X3626870D01*
X3700800Y2356870D01*
Y2215130D01*
X3573800Y2088130D01*
Y2071360D01*
G02X3538200I-17800J-39360D01*
G01Y2091500D01*
G03X3520860Y2098680I-10158J-4D01*
G01X3446800Y2024630D01*
Y1086870D01*
X3573800Y959870D01*
Y928360D01*
G37*
G54D16*
X952500Y3619500D03*
Y3873500D03*
X1079500Y3746500D03*
Y4254500D03*
X952500Y4127500D03*
X1651000Y3238500D03*
X1397000D03*
X1270000Y3365500D03*
X1524000D03*
X1397000Y4508500D03*
X1270000Y4381500D03*
X1778000Y3365500D03*
X2159000Y3492500D03*
X2032000Y3365500D03*
X1905000Y3238500D03*
X2286000Y3619500D03*
X2159000Y3746500D03*
X2286000Y3873500D03*
X2159000Y4000500D03*
X1905000Y4508500D03*
X1778000Y4381500D03*
X2032000D03*
X2286000Y4127500D03*
X2159000Y4254500D03*
X2413000Y889000D03*
Y698500D03*
Y1333500D03*
Y2286000D03*
Y2857500D03*
Y3111500D03*
X2540000Y4381500D03*
X2413000Y4254500D03*
X3175000Y3619500D03*
X3429000Y4381500D03*
X3556000Y698500D03*
Y1143000D03*
Y3111500D03*
Y3302000D03*
X3551000Y4503500D03*
G54D17*
X3238500Y5970000D03*
Y6730000D03*
X5461000Y6667500D03*
X5969000D03*
G54D15*
X254000Y1143000D03*
Y1397000D03*
X6731000Y1016000D03*
Y1270000D03*
X6794500Y2857500D03*
Y2603500D03*
%LPD*%
G75*
G36*
G01X3573800Y2163000D02*
Y2246640D01*
G03X3516640Y2303800I-17800J39360D01*
G01X3358130D01*
X3294630Y2240300D01*
X2674370D01*
X2600320Y2314360D01*
G02X2607500Y2331700I7184J7182D01*
G01X2659630D01*
X2723130Y2268200D01*
X3245870D01*
X3372870Y2395200D01*
X3612130D01*
X3665200Y2342130D01*
Y2229870D01*
X3591140Y2155820D01*
G02X3573800Y2163000I-7182J7184D01*
G37*
G54D10*
X254000Y254000D03*
Y6746000D03*
X6746000Y254000D03*
Y6746000D03*
G54D11*
X254000Y1143000D03*
Y1397000D03*
X317500Y5080000D03*
Y4826000D03*
X6731000Y1016000D03*
Y1270000D03*
X6794500Y2857500D03*
Y2603500D03*
G54D12*
X446000Y2221000D03*
X254000Y3683000D03*
X127000Y3873500D03*
X1016000Y2540000D03*
X1079500Y3492500D03*
X952500Y3619500D03*
Y3873500D03*
X1079500Y3746500D03*
Y4000500D03*
Y4254500D03*
X952500Y4127500D03*
X1651000Y3238500D03*
X1397000D03*
X1270000Y3365500D03*
X1143000Y3111500D03*
X1524000Y3365500D03*
X1397000Y4508500D03*
X1270000Y4381500D03*
X1524000D03*
X1651000Y4508500D03*
X1778000Y1968500D03*
Y3365500D03*
X2159000Y3492500D03*
X2032000Y3365500D03*
X1905000Y3238500D03*
X2286000Y3619500D03*
X2159000Y3746500D03*
X2286000Y3873500D03*
X2159000Y4000500D03*
X1905000Y4508500D03*
X1778000Y4381500D03*
X2032000D03*
X2286000Y4127500D03*
X2159000Y4254500D03*
X2413000Y889000D03*
Y1079500D03*
Y698500D03*
Y1333500D03*
Y2286000D03*
Y1714500D03*
Y2032000D03*
Y2857500D03*
X2794000Y2413000D03*
X2413000Y2667000D03*
Y3111500D03*
Y3302000D03*
X2794000Y3619500D03*
X2540000Y4381500D03*
X2413000Y4254500D03*
X2418000Y4503500D03*
X2540000Y4635500D03*
X2413000Y4762500D03*
X2984500Y2159000D03*
Y2413000D03*
X3175000D03*
Y3619500D03*
X3003500Y4019500D03*
X2984500Y3619500D03*
X3429000Y4635500D03*
Y4381500D03*
X3003500Y5061000D03*
X3556000Y889000D03*
Y698500D03*
Y1143000D03*
Y1333500D03*
Y1651000D03*
Y2286000D03*
Y2032000D03*
Y2730500D03*
Y3111500D03*
Y3302000D03*
Y2921000D03*
Y4254500D03*
X3551000Y4503500D03*
X3556000Y4762500D03*
X4254500Y2476500D03*
X4635500Y3429000D03*
X4699000Y3302000D03*
X4592400Y4655900D03*
X4701700Y4574700D03*
X4191000Y4127500D03*
X4394200Y5194300D03*
X4826000Y3238500D03*
X5207000Y3873500D03*
X4762500Y4064000D03*
X5080000Y5334000D03*
X5334000Y3492500D03*
Y3810000D03*
X5900400Y3677900D03*
X5588000Y3556000D03*
X5334000Y4000500D03*
X5778500Y3556000D03*
X5448300Y5194300D03*
X6413500Y4699000D03*
X6286500Y4572000D03*
G54D13*
X3238500Y5970000D03*
Y6730000D03*
X5461000Y6413500D03*
X5715000D03*
X5461000Y6667500D03*
X5715000D03*
X5969000Y6413500D03*
Y6667500D03*
G54D14*
G01X254000Y1303000D02*
Y1397000D01*
G01D02*
Y1491000D01*
G01X160000Y1397000D02*
X254000D01*
G01D02*
X348000D01*
G01X1016000Y2540000D02*
X571500D01*
X446000Y2414500D01*
Y2221000D01*
G01X254000Y3683000D02*
X317500Y3619500D01*
X825500D01*
X952500Y3492500D01*
X1079500D01*
G01Y4000500D02*
X698500D01*
X571500Y3873500D01*
X127000D01*
G01X317500Y5080000D02*
X190500Y4953000D01*
Y4699000D01*
X254000Y4635500D01*
X1079500D01*
X1143000Y4572000D01*
Y4318000D01*
X1206500Y4254500D01*
X1587500D01*
X1651000Y4318000D01*
Y4508500D01*
G01X317500Y4826000D02*
X444500Y4699000D01*
X1524000D01*
G01X1079500Y4000500D02*
Y3873500D01*
X1206500Y3746500D01*
Y3492500D01*
X1143000Y3429000D01*
Y3111500D01*
G01X1524000Y4699000D02*
Y4381500D01*
G01X1651000Y4508500D02*
Y4826000D01*
X1714500Y4889500D01*
X2603500D01*
X2984500Y4508500D01*
X3429000D01*
X3556000Y4635500D01*
X4445000D01*
X4508500Y4572000D01*
X4650740D01*
X4653440Y4574700D01*
X4701700D01*
G01X4592400Y4655900D02*
X4549300Y4699000D01*
X2857500D01*
X2603500Y4953000D01*
X1651000D01*
X1524000Y4826000D01*
Y4699000D01*
G01X2413000Y2032000D02*
X2159000D01*
X2095500Y1968500D01*
X1778000D01*
G01X2794000Y3619500D02*
X2413000D01*
X2222500Y3429000D01*
Y2667000D01*
X2667000Y2222500D01*
X3302000D01*
X3365500Y2286000D01*
X3556000D01*
G01X2413000Y1714500D02*
X2540000Y1587500D01*
Y1270000D01*
X2413000Y1143000D01*
Y1079500D01*
G01X2984500Y2159000D02*
X2476500D01*
X2413000Y2095500D01*
Y2032000D01*
G01X3556000Y2730500D02*
X2857500D01*
X2794000Y2667000D01*
Y2413000D01*
G01X2984500Y3619500D02*
X2857500Y3492500D01*
X2476500D01*
X2286000Y3302000D01*
Y2667000D01*
X2603500Y2349500D01*
X2667000D01*
X2730500Y2286000D01*
X3238500D01*
X3365500Y2413000D01*
X3619500D01*
X3683000Y2349500D01*
Y2222500D01*
X3556000Y2095500D01*
Y2032000D01*
G01X4635500Y3429000D02*
X3492500D01*
X3365500Y3302000D01*
Y2857500D01*
X3302000Y2794000D01*
X2794000D01*
X2667000Y2667000D01*
X2413000D01*
G01X5588000Y3556000D02*
X3556000D01*
X3302000Y3302000D01*
X2413000D01*
G01X2794000Y3619500D02*
X2984500Y3810000D01*
X3683000D01*
X3810000Y3683000D01*
X5397500D01*
X5461000Y3746500D01*
X5778500D01*
X5847100Y3677900D01*
X5900400D01*
G01X2540000Y4635500D02*
X2794000Y4381500D01*
Y4000500D01*
X2857500Y3937000D01*
X3175000D01*
X3302000Y4064000D01*
X4762500D01*
G01X3556000Y2286000D02*
Y2159000D01*
X3429000Y2032000D01*
Y1079500D01*
X3556000Y952500D01*
Y889000D01*
G01X4254500Y2476500D02*
X4191000Y2540000D01*
X3365500D01*
X3238500Y2413000D01*
X3175000D01*
G01X4191000Y4127500D02*
X3175000D01*
X3067000Y4019500D01*
X3003500D01*
G01X5778500Y3556000D02*
X5651500Y3683000D01*
X5524500D01*
X5461000Y3619500D01*
X3556000D01*
X3429000Y3746500D01*
X3175000D01*
X3048000Y3619500D01*
X2984500D01*
G01X3003500Y5061000D02*
X3048000Y5105500D01*
Y5588000D01*
X3175000Y5715000D01*
X6350000D01*
X6477000Y5588000D01*
Y4826000D01*
X6413500Y4762500D01*
Y4699000D01*
G01X4826000Y3238500D02*
Y3175000D01*
X4635500Y2984500D01*
Y1778000D01*
X4508500Y1651000D01*
X3556000D01*
G01X4699000Y3302000D02*
X4572000Y3175000D01*
X3810000D01*
X3746500Y3111500D01*
Y2984500D01*
X3683000Y2921000D01*
X3556000D01*
G01Y4254500D02*
X3746500Y4445000D01*
X6096000D01*
X6223000Y4572000D01*
X6286500D01*
G01X5080000Y5334000D02*
X3683000D01*
X3556000Y5207000D01*
Y4762500D01*
G01X4394200Y5194300D02*
X5448300D01*
G01X5461000Y6413500D02*
Y6223000D01*
X5524500Y6159500D01*
X6540500D01*
X6667500Y6032500D01*
Y4381500D01*
X6604000Y4318000D01*
X5143500D01*
X5080000Y4254500D01*
Y3810000D01*
X5143500Y3746500D01*
X5207000D01*
X5270500Y3810000D01*
X5334000D01*
G01X5207000Y3873500D02*
Y4064000D01*
X5270500Y4127500D01*
X6667500D01*
X6731000Y4191000D01*
Y6096000D01*
X6604000Y6223000D01*
X5651500D01*
X5588000Y6286500D01*
Y6540500D01*
X5715000Y6667500D01*
G01X5334000Y3492500D02*
X5397500Y3429000D01*
X6731000D01*
X6858000Y3556000D01*
Y6223000D01*
X6667500Y6413500D01*
X5969000D01*
G01X5715000D02*
X5842000Y6286500D01*
X6667500D01*
X6794500Y6159500D01*
Y4064000D01*
X6731000Y4000500D01*
X5334000D01*
G01X5969000Y6598900D02*
Y6667500D01*
G01D02*
Y6736100D01*
G01X5900400Y6667500D02*
X5969000D01*
G01D02*
X6037600D01*
M02*
