G04 ================== begin FILE IDENTIFICATION RECORD ==================*
G04 Layout Name:  C:/project/allegro/SENSOR BOARD.brd*
G04 Film Name:    TOP*
G04 File Format:  Gerber RS274X*
G04 File Origin:  Cadence Allegro 16.6-2015-S108*
G04 Origin Date:  Tue Oct 16 21:29:55 2018*
G04 *
G04 Layer:  ETCH/TOP*
G04 Layer:  PIN/TOP*
G04 Layer:  VIA CLASS/TOP*
G04 *
G04 Offset:    (0.0000 0.0000)*
G04 Mirror:    No*
G04 Mode:      Positive*
G04 Rotation:  0*
G04 FullContactRelief:  No*
G04 UndefLineWidth:     0.1000*
G04 ================== end FILE IDENTIFICATION RECORD ====================*
%FSLAX25Y25*MOMM*%
%IR0*IPPOS*OFA0.00000B0.00000*MIA0B0*SFA1.00000B1.00000*%
%ADD27R,.3X1.2*%
%ADD36R,1.X.5*%
%ADD28R,1.2X.3*%
%ADD29R,1.X.35*%
%ADD16R,1.35X.4*%
%ADD32R,.71X1.4*%
%ADD34C,.2*%
%ADD33R,.25X1.35*%
%ADD31R,1.35X.25*%
%ADD38R,.45X1.625*%
%ADD39R,1.625X.45*%
%ADD10C,.635*%
%ADD12C,.6096*%
%ADD21R,1.4X1.*%
%ADD18R,1.5X1.*%
%ADD25R,1.4X3.*%
%ADD13O,1.8X1.1*%
%ADD17R,3.4X2.*%
%ADD15R,1.6X2.1*%
%ADD23R,1.8X1.*%
%ADD24R,1.5X3.3*%
%ADD37R,5.5X2.*%
%ADD19R,1.6X2.6*%
%ADD22R,2.6X1.6*%
%ADD35C,1.016*%
%ADD14R,1.9X1.65*%
%ADD11C,1.524*%
%ADD30R,.96X.36*%
%ADD26R,3.15X3.15*%
%ADD20R,1.524X1.524*%
%ADD40C,.1016*%
%ADD51R,1.2544X.7544*%
%ADD53R,1.8794X.7044*%
%ADD52R,.7044X1.8794*%
%ADD54C,1.2704*%
%ADD55R,3.4044X3.4044*%
%ADD48R,2.0544X1.2544*%
%ADD42R,2.1544X1.9044*%
%ADD44R,1.7544X1.2544*%
%ADD50R,1.6544X3.2544*%
%ADD43R,1.8544X2.3544*%
%ADD41C,1.7784*%
%ADD49R,1.7544X3.5544*%
%ADD47R,2.8544X1.8544*%
%ADD45R,1.8544X2.8544*%
%ADD46R,1.7784X1.7784*%
G75*
%LPD*%
G75*
G36*
G01X508020Y0D02*
Y508020D01*
X0D01*
Y6491980D01*
X508020D01*
Y7000000D01*
X6491980D01*
Y6491980D01*
X7000000D01*
Y508020D01*
X6491980D01*
Y0D01*
X508020D01*
G37*
%LPC*%
G75*
G36*
G01X124000Y3252280D02*
G02Y3387720I0J67720D01*
G01X194000D01*
G02Y3252280I0J-67720D01*
G01X124000D01*
G37*
G36*
G01Y2612280D02*
G02Y2747720I0J67720D01*
G01X194000D01*
G02Y2612280I0J-67720D01*
G01X124000D01*
G37*
G36*
G01X4089420Y5900400D02*
Y5829280D01*
X3911580D01*
Y6007120D01*
X3982700D01*
Y6166870D01*
X4046200Y6230370D01*
Y6342630D01*
X3981550Y6407280D01*
X3881280D01*
Y6482720D01*
X4006720D01*
Y6432450D01*
X4081800Y6357370D01*
Y6215630D01*
X4018300Y6152130D01*
Y6007120D01*
X4089420D01*
Y5936000D01*
X4292580D01*
Y6007120D01*
X4470420D01*
Y5829280D01*
X4292580D01*
Y5900400D01*
X4089420D01*
G37*
G36*
G01X3372870Y6586200D02*
X3256300Y6469630D01*
Y6031080D01*
X3259690Y6029880D01*
G02X3217310I-21190J-59880D01*
G01X3220700Y6031080D01*
Y6484370D01*
X3358130Y6621800D01*
X4134870D01*
X4208800Y6547870D01*
Y6387720D01*
X4246720D01*
Y6367800D01*
X4706370D01*
X4780300Y6293870D01*
Y5994420D01*
X4851420D01*
Y5816580D01*
X4673580D01*
Y5994420D01*
X4744700D01*
Y6279130D01*
X4691630Y6332200D01*
X4246720D01*
Y6312280D01*
X4121280D01*
Y6387720D01*
X4166200D01*
Y6400150D01*
X4173200Y6407150D01*
Y6533130D01*
X4120130Y6586200D01*
X3372870D01*
G37*
G36*
G01X1785370Y6840200D02*
X1719600Y6774430D01*
Y6311920D01*
X1790720D01*
Y6134080D01*
X1719600D01*
Y5803920D01*
X1790720D01*
Y5626080D01*
X1612880D01*
Y5697200D01*
X1440720D01*
Y5622280D01*
X1155280D01*
Y5807720D01*
X1440720D01*
Y5732800D01*
X1612880D01*
Y5803920D01*
X1684000D01*
Y6134080D01*
X1612880D01*
Y6205200D01*
X1455220D01*
Y6160280D01*
X1249780D01*
Y6285720D01*
X1455220D01*
Y6240800D01*
X1612880D01*
Y6311920D01*
X1684000D01*
Y6789170D01*
X1770630Y6875800D01*
X5785870D01*
X5859800Y6801870D01*
Y6547870D01*
X5938470Y6469200D01*
G02X5911680Y6440860I30535J-55697D01*
G01X5913220Y6444100D01*
X5824200Y6533130D01*
Y6787130D01*
X5771130Y6840200D01*
X1785370D01*
G37*
G36*
G01X1117620Y4978420D02*
Y4800580D01*
X939780D01*
Y4978420D01*
X1010900D01*
Y5118080D01*
X939780D01*
Y5295920D01*
X1117620D01*
Y5118080D01*
X1046500D01*
Y4978420D01*
X1117620D01*
G37*
G36*
G01X6672470Y4691120D02*
Y4620680D01*
X6484530D01*
Y4638100D01*
X6449230D01*
X6428830Y4658500D01*
X6425920Y4657620D01*
G02X6454880Y4686580I-12420J41380D01*
G01X6454000Y4683670D01*
X6463970Y4673700D01*
X6484530D01*
Y4691120D01*
X6672470D01*
G37*
G36*
G01X4884530Y4638100D02*
X4631760D01*
G02Y4673700I-39360J17800D01*
G01X4884530D01*
Y4691120D01*
X5072470D01*
Y4620680D01*
X4884530D01*
Y4638100D01*
G37*
G36*
G01Y4556900D02*
X4741060D01*
G02Y4592500I-39360J17800D01*
G01X4884530D01*
Y4609920D01*
X5072470D01*
Y4539480D01*
X4884530D01*
Y4556900D01*
G37*
G36*
G01X6484530Y4554200D02*
X6325860D01*
G02Y4589800I-39360J17800D01*
G01X6469500D01*
X6472100Y4592400D01*
X6484530D01*
Y4609820D01*
X6672470D01*
Y4539380D01*
X6484530D01*
Y4554200D01*
G37*
G36*
G01X4777830Y4104500D02*
X4859330Y4186000D01*
X4884530D01*
Y4203420D01*
X5072470D01*
Y4132980D01*
X4884530D01*
Y4150400D01*
X4874070D01*
X4803000Y4079330D01*
X4803880Y4076420D01*
G02X4774920Y4105380I-41380J-12420D01*
G01X4777830Y4104500D01*
G37*
G36*
G01X5072470Y3906500D02*
Y3889080D01*
X4884530D01*
Y3959520D01*
X5072470D01*
Y3942100D01*
X5123430D01*
X5199630Y4018300D01*
X5294640D01*
G02Y3982700I39360J-17800D01*
G01X5214370D01*
X5138170Y3906500D01*
X5072470D01*
G37*
G36*
G01Y3825200D02*
Y3807780D01*
X4884530D01*
Y3878220D01*
X5072470D01*
Y3860800D01*
X5120870D01*
X5151370Y3891300D01*
X5167640D01*
G02X5173130Y3846690I39361J-17799D01*
G03X5157980Y3847570I-7967J-6307D01*
G01X5135610Y3825200D01*
X5072470D01*
G37*
G36*
G01Y3743900D02*
Y3726480D01*
X4884530D01*
Y3796920D01*
X5072470D01*
Y3779500D01*
X5278330D01*
X5293500Y3794670D01*
X5292620Y3797580D01*
G02X5321580Y3768620I41380J12420D01*
G01X5318670Y3769500D01*
X5293070Y3743900D01*
X5072470D01*
G37*
G36*
G01X717720Y3782220D02*
Y3656780D01*
X552280D01*
Y3782220D01*
X617200D01*
Y3875850D01*
X553700Y3939350D01*
Y3951780D01*
X388780D01*
Y4177220D01*
X754220D01*
Y3951780D01*
X616140D01*
G03X608960Y3934440I4J-10158D01*
G01X652800Y3890590D01*
Y3782220D01*
X717720D01*
G37*
G36*
G01X5443200Y4628130D02*
X5326630Y4744700D01*
X5136130D01*
X5009130Y4871700D01*
X4628130D01*
X4554200Y4945630D01*
Y5517130D01*
X4501130Y5570200D01*
X4470420D01*
Y5499080D01*
X4292580D01*
Y5676920D01*
X4470420D01*
Y5605800D01*
X4515870D01*
X4589800Y5531870D01*
Y4960370D01*
X4642870Y4907300D01*
X5023870D01*
X5150870Y4780300D01*
X5341370D01*
X5478800Y4642870D01*
Y3739130D01*
X5402270Y3662600D01*
X5072470D01*
Y3645180D01*
X4884530D01*
Y3715620D01*
X5072470D01*
Y3698200D01*
X5387530D01*
X5443200Y3753870D01*
Y4628130D01*
G37*
G36*
G01X4769870Y6748800D02*
X4907300Y6611370D01*
Y5694930D01*
X4851420Y5639050D01*
Y5486380D01*
X4673580D01*
Y5664220D01*
X4826250D01*
X4871700Y5709670D01*
Y6596630D01*
X4755130Y6713200D01*
X3315450D01*
X3314450Y6712200D01*
X3299580D01*
X3298380Y6708810D01*
G02X3178620I-59880J21190D01*
G01X3177420Y6712200D01*
X3162550D01*
X3161550Y6713200D01*
X2039370D01*
X1922800Y6596630D01*
Y5453630D01*
X1848870Y5379700D01*
X959870D01*
X906800Y5326630D01*
Y5072630D01*
X787420Y4953250D01*
Y4800580D01*
X634750D01*
X589300Y4755130D01*
Y4557220D01*
X754220D01*
Y4331780D01*
X388780D01*
Y4426700D01*
X376350D01*
X375850Y4427200D01*
X324870D01*
X271800Y4374130D01*
Y3722360D01*
G02X236200I-17800J-39360D01*
G01Y4388870D01*
X310130Y4462800D01*
X388780D01*
Y4557220D01*
X553700D01*
Y4769870D01*
X609580Y4825750D01*
Y4978420D01*
X762250D01*
X871200Y5087370D01*
Y5341370D01*
X945130Y5415300D01*
X1834130D01*
X1887200Y5468370D01*
Y6611370D01*
X2024630Y6748800D01*
X3177720D01*
X3178950Y6752110D01*
G02X3298050I59550J-22110D01*
G01X3299280Y6748800D01*
X4769870D01*
G37*
G36*
G01X5570200Y4642870D02*
X5644130Y4716800D01*
X6215630D01*
X6289100Y4790270D01*
Y4833530D01*
X6271680D01*
Y5021470D01*
X6342120D01*
Y4833530D01*
X6324700D01*
Y4775530D01*
X6230370Y4681200D01*
X5658870D01*
X5605800Y4628130D01*
Y3595360D01*
G02X5570200I-17800J-39360D01*
G01Y4642870D01*
G37*
G36*
G01X4589800Y3499870D02*
X4620170Y3469500D01*
X4623080Y3470380D01*
G02X4594120Y3441420I12420J-41380D01*
G01X4595000Y3444330D01*
X4554200Y3485130D01*
Y4261870D01*
X4640930Y4348600D01*
X4884530D01*
Y4366020D01*
X5072470D01*
Y4295580D01*
X4884530D01*
Y4313000D01*
X4655670D01*
X4589800Y4247130D01*
Y3499870D01*
G37*
G36*
G01X4714330Y3342500D02*
X4744700Y3372870D01*
Y3866130D01*
X4617700Y3993130D01*
Y4198370D01*
X4686630Y4267300D01*
X4884530D01*
Y4284720D01*
X5072470D01*
Y4214280D01*
X4884530D01*
Y4231700D01*
X4701370D01*
X4653300Y4183630D01*
Y4007870D01*
X4780300Y3880870D01*
Y3358130D01*
X4739500Y3317330D01*
X4740380Y3314420D01*
G02X4711420Y3343380I-41380J-12420D01*
G01X4714330Y3342500D01*
G37*
G36*
G01X5465120Y3430140D02*
X5443200Y3452060D01*
Y3626870D01*
X5506700Y3690370D01*
Y4691630D01*
X5387660Y4810670D01*
X5364310D01*
X5341450Y4833530D01*
X5321350D01*
X5298490Y4810670D01*
X5201710D01*
X5178850Y4833530D01*
X5133580D01*
Y5021470D01*
X5151000D01*
Y5237830D01*
X5095330Y5293500D01*
X5092420Y5292620D01*
G02X5062200Y5373360I-12423J41376D01*
G01Y6611370D01*
X5136130Y6685300D01*
X5399920D01*
X5401120Y6688690D01*
G02Y6646310I59880J-21190D01*
G01X5399920Y6649700D01*
X5150870D01*
X5097800Y6596630D01*
Y5373360D01*
G02X5121380Y5321580I-17798J-39364D01*
G01X5120500Y5318670D01*
X5186600Y5252570D01*
Y5021470D01*
X5204020D01*
Y4858700D01*
X5206210Y4856510D01*
G03X5214880Y4860110I3589J3596D01*
G01Y5021470D01*
X5285320D01*
Y4860110D01*
G03X5293990Y4856510I5081J-4D01*
G01X5296180Y4858700D01*
Y5021470D01*
X5366620D01*
Y4858700D01*
X5368810Y4856510D01*
G03X5377480Y4860110I3589J3596D01*
G01Y5021470D01*
X5447920D01*
Y4833530D01*
X5439670D01*
G03X5432490Y4816190I4J-10158D01*
G01X5468370Y4780300D01*
X6088630D01*
X6126500Y4818170D01*
Y4833530D01*
X6109080D01*
Y5021470D01*
X6179520D01*
Y4833530D01*
X6162100D01*
Y4803430D01*
X6103370Y4744700D01*
X5528500D01*
G03X5521320Y4727360I4J-10158D01*
G01X5542300Y4706370D01*
Y3675630D01*
X5478800Y3612130D01*
Y3466800D01*
X5511700Y3433900D01*
Y3421470D01*
X5529120D01*
Y3233530D01*
X5458680D01*
Y3421470D01*
X5461520D01*
G03X5465120Y3430140I4J5081D01*
G37*
G36*
G01X5376960Y3487440D02*
X5430500Y3433900D01*
Y3421470D01*
X5447920D01*
Y3233530D01*
X5377480D01*
Y3421470D01*
X5380320D01*
G03X5383920Y3430140I4J5081D01*
G01X5357800Y3456250D01*
X5354480Y3454460D01*
G02X5377110Y3489730I-20482J38037D01*
G01X5376960Y3487440D01*
G37*
G36*
G01X4843800Y3985780D02*
Y3277860D01*
G02X4808200I-17800J-39360D01*
G01Y4000520D01*
X4884530Y4076850D01*
Y4122120D01*
X5072470D01*
Y4051680D01*
X4909700D01*
X4907510Y4049490D01*
G03X4911110Y4040820I3596J-3589D01*
G01X5072470D01*
Y3970380D01*
X4884530D01*
Y4001980D01*
G03X4867190Y4009160I-10158J-4D01*
G01X4843800Y3985780D01*
G37*
G36*
G01X6152130Y3093700D02*
X6045200Y3200630D01*
Y3233530D01*
X6027780D01*
Y3421470D01*
X6098220D01*
Y3233530D01*
X6080800D01*
Y3215370D01*
X6166870Y3129300D01*
X6547870D01*
X6745420Y2931750D01*
X6748820Y2933790D01*
G02X6718210Y2903180I45680J-76290D01*
G01X6720250Y2906580D01*
X6533130Y3093700D01*
X6152130D01*
G37*
G36*
G01X6720250Y2652580D02*
X6406130Y2966700D01*
X6152130D01*
X5963900Y3154930D01*
Y3233530D01*
X5946480D01*
Y3421470D01*
X6016920D01*
Y3233530D01*
X5999500D01*
Y3169670D01*
X6166870Y3002300D01*
X6420870D01*
X6745420Y2677750D01*
X6748820Y2679790D01*
G02X6718210Y2649180I45680J-76290D01*
G01X6720250Y2652580D01*
G37*
G36*
G01X5962040Y2797060D02*
X5720000Y3039110D01*
Y3233530D01*
X5702580D01*
Y3421470D01*
X5773020D01*
Y3233530D01*
X5755600D01*
Y3053850D01*
X6017300Y2792150D01*
Y2779720D01*
X6287220D01*
Y2554280D01*
X6017300D01*
Y2356850D01*
X6050300Y2323850D01*
Y2311420D01*
X6121420D01*
Y2133580D01*
X5943580D01*
Y2311420D01*
X5987860D01*
G03X5995040Y2328760I-4J10158D01*
G01X5981700Y2342110D01*
Y2554280D01*
X5711780D01*
Y2779720D01*
X5954860D01*
G03X5962040Y2797060I-4J10158D01*
G37*
G36*
G01X5354560Y2704460D02*
X5638700Y2988590D01*
Y3233530D01*
X5621280D01*
Y3421470D01*
X5691720D01*
Y3233530D01*
X5674300D01*
Y2973850D01*
X5349650Y2649200D01*
X5337220D01*
Y2554280D01*
X5067300D01*
Y2438630D01*
X4914920Y2286250D01*
Y2133580D01*
X4737080D01*
Y2311420D01*
X4889750D01*
X5031700Y2453370D01*
Y2554280D01*
X4761780D01*
Y2779720D01*
X5337220D01*
Y2711640D01*
G03X5354560Y2704460I10158J4D01*
G37*
G36*
G01X134370Y2204700D02*
X81300Y2151630D01*
Y896370D01*
X173870Y803800D01*
X663280D01*
Y848720D01*
X838720D01*
Y723280D01*
X663280D01*
Y768200D01*
X159130D01*
X45700Y881630D01*
Y2166370D01*
X119630Y2240300D01*
X407350D01*
G02X463800Y2181640I38649J-19298D01*
G01Y2165370D01*
X462300Y2163870D01*
Y1975870D01*
X487370Y1950800D01*
X732780D01*
Y2075720D01*
X918220D01*
Y1790280D01*
X732780D01*
Y1915200D01*
X472630D01*
X426700Y1961130D01*
Y2182350D01*
G02X406640Y2203200I19303J38647D01*
G01X390370D01*
X388870Y2204700D01*
X134370D01*
G37*
G36*
G01X6261120Y863580D02*
X6083280D01*
Y1016250D01*
X6014700Y1084830D01*
Y1340870D01*
X6332200Y1658370D01*
Y2786630D01*
X6279130Y2839700D01*
X6025130D01*
X5801300Y3063530D01*
Y3233530D01*
X5783880D01*
Y3421470D01*
X5801300D01*
Y3508030D01*
X5793830Y3515500D01*
X5790920Y3514620D01*
G02X5819880Y3543580I-12420J41380D01*
G01X5819000Y3540670D01*
X5836900Y3522770D01*
Y3421470D01*
X5854320D01*
Y3233530D01*
X5836900D01*
Y3078270D01*
X6039870Y2875300D01*
X6293870D01*
X6367800Y2801370D01*
Y1643630D01*
X6100440Y1376260D01*
G03X6107620Y1358920I7184J-7182D01*
G01X6235950D01*
X6395700Y1518670D01*
Y2850130D01*
X6342630Y2903200D01*
X6088630D01*
X5882600Y3109230D01*
Y3233530D01*
X5865180D01*
Y3421470D01*
X5882600D01*
Y3638540D01*
G02X5918200I17800J39360D01*
G01Y3421470D01*
X5935620D01*
Y3233530D01*
X5918200D01*
Y3123970D01*
X6103370Y2938800D01*
X6357370D01*
X6431300Y2864870D01*
Y1503930D01*
X6261120Y1333750D01*
Y1287800D01*
X6643790D01*
X6644750Y1291640D01*
G02Y1248360I86250J-21640D01*
G01X6643790Y1252200D01*
X6261120D01*
Y1181080D01*
X6083280D01*
Y1334580D01*
G03X6065940Y1341760I-10158J-4D01*
G01X6050300Y1326130D01*
Y1099570D01*
X6108450Y1041420D01*
X6261120D01*
Y970300D01*
X6566150D01*
X6629650Y1033800D01*
X6643790D01*
X6644750Y1037640D01*
G02X6648640Y982490I86249J-21629D01*
G03X6632040Y985850I-9414J-3825D01*
G01X6580890Y934700D01*
X6261120D01*
Y863580D01*
G37*
G36*
G01X3690370Y553700D02*
X2532630D01*
X2428330Y658000D01*
X2425420Y657120D01*
G02Y739880I-12420J41380D01*
G01X2428330Y739000D01*
X2609630Y920300D01*
X2812280D01*
Y949700D01*
X2498870D01*
X2453500Y904330D01*
X2454380Y901420D01*
G02X2373640Y871200I-41376J-12423D01*
G01X1961130D01*
X1887200Y945130D01*
Y1647000D01*
G03X1869860Y1654180I-10158J-4D01*
G01X1820870Y1605200D01*
X1553220D01*
Y1480280D01*
X1367780D01*
Y1605200D01*
X1249370D01*
X1160800Y1516630D01*
Y1072130D01*
X1086870Y998200D01*
X838720D01*
Y953280D01*
X663280D01*
Y998200D01*
X373630D01*
X303080Y1068750D01*
X299680Y1066710D01*
G02X330290Y1097320I-45680J76290D01*
G01X328250Y1093920D01*
X388370Y1033800D01*
X663280D01*
Y1078720D01*
X838720D01*
Y1033800D01*
X1072130D01*
X1125200Y1086870D01*
Y1531370D01*
X1234630Y1640800D01*
X1367780D01*
Y1765720D01*
X1553220D01*
Y1640800D01*
X1806130D01*
X1887200Y1721870D01*
Y2438380D01*
X1816080D01*
Y2616220D01*
X1993920D01*
Y2438380D01*
X1922800D01*
Y959870D01*
X1975870Y906800D01*
X2373640D01*
G02X2425420Y930380I39364J-17798D01*
G01X2428330Y929500D01*
X2484130Y985300D01*
X2812280D01*
Y1079700D01*
X2514630D01*
X2395200Y1199130D01*
Y1294140D01*
G02X2371620Y1345920I17798J39364D01*
G01X2372500Y1348830D01*
X2268200Y1453130D01*
Y2166370D01*
X2352680Y2250860D01*
G03X2345500Y2268200I-7184J7182D01*
G01X2151630D01*
X2077700Y2342130D01*
Y2596130D01*
X2024630Y2649200D01*
X1770630D01*
X1696700Y2723130D01*
Y2913630D01*
X1643630Y2966700D01*
X1326130D01*
X1252200Y3040630D01*
Y3326140D01*
G02X1230640Y3347700I17800J39360D01*
G01X1086870D01*
X1033800Y3294630D01*
Y2882920D01*
X1104920D01*
Y2705080D01*
X927080D01*
Y2882920D01*
X998200D01*
Y3309370D01*
X1072130Y3383300D01*
X1230640D01*
G02X1282420Y3406880I39364J-17798D01*
G01X1285330Y3406000D01*
X1326130Y3446800D01*
X1389630D01*
X1483200Y3540370D01*
Y3550780D01*
X1473280D01*
Y3605700D01*
X1460850D01*
X1383200Y3683350D01*
Y3695780D01*
X1328280D01*
Y3755700D01*
X1304370D01*
X1150370Y3601700D01*
X991860D01*
G02X940080Y3578120I-39364J17798D01*
G01X937170Y3579000D01*
X906800Y3548630D01*
Y3052000D01*
G03X924140Y3044820I10158J4D01*
G01X934700Y3055370D01*
Y3372870D01*
X1039000Y3477170D01*
X1038120Y3480080D01*
G02X1067080Y3451120I41380J12420D01*
G01X1064170Y3452000D01*
X970300Y3358130D01*
Y3040630D01*
X906800Y2977130D01*
Y2610870D01*
X959870Y2557800D01*
X976640D01*
G02X1055360I39360J-17800D01*
G01X1072130D01*
X1228630Y2714300D01*
X1377780D01*
Y2859220D01*
X1543220D01*
Y2533780D01*
X1377780D01*
Y2678700D01*
X1243370D01*
X1086870Y2522200D01*
X1055360D01*
G02X976640I-39360J17800D01*
G01X945130D01*
X871200Y2596130D01*
Y2980500D01*
G03X853860Y2987680I-10158J-4D01*
G01X843300Y2977130D01*
Y2483870D01*
X952250Y2374920D01*
X1104920D01*
Y2197080D01*
X927080D01*
Y2349750D01*
X807700Y2469130D01*
Y2991870D01*
X871200Y3055370D01*
Y3563370D01*
X912000Y3604170D01*
X911120Y3607080D01*
G02X991860Y3637300I41376J12423D01*
G01X1135630D01*
X1289630Y3791300D01*
X1328280D01*
Y3805700D01*
X1163870D01*
X1120000Y3761830D01*
X1120880Y3758920D01*
G02X1040140Y3728700I-41376J-12423D01*
G01X896370D01*
X843300Y3675630D01*
Y3104130D01*
X721370Y2982200D01*
X506720D01*
Y2837280D01*
X346280D01*
Y3162720D01*
X481550D01*
X493760Y3174940D01*
G03X486580Y3192280I-7184J7182D01*
G01X321280D01*
Y3427720D01*
X506720D01*
Y3212420D01*
G03X524060Y3205240I10158J4D01*
G01X617200Y3298370D01*
Y3456780D01*
X552280D01*
Y3582220D01*
X717720D01*
Y3456780D01*
X652800D01*
Y3283630D01*
X506720Y3137550D01*
Y3082800D01*
X708130D01*
X744200Y3118870D01*
Y3690370D01*
X912000Y3858170D01*
X911120Y3861080D01*
G02X991860Y3891300I41376J12423D01*
G01X1328280D01*
Y3955700D01*
X1226130D01*
X1072130Y4109700D01*
X991860D01*
G02Y4145300I-39360J17800D01*
G01X1086870D01*
X1240870Y3991300D01*
X1328280D01*
Y4005700D01*
X1303130D01*
X1094830Y4214000D01*
X1091920Y4213120D01*
G02X1120880Y4242080I-12420J41380D01*
G01X1120000Y4239170D01*
X1317870Y4041300D01*
X1328280D01*
Y4051220D01*
X1473280D01*
Y4196220D01*
X1483200D01*
Y4206630D01*
X1389630Y4300200D01*
X1326130D01*
X1285330Y4341000D01*
X1282420Y4340120D01*
G02X1311380Y4369080I-12420J41380D01*
G01X1310500Y4366170D01*
X1340870Y4335800D01*
X1393000D01*
G03X1400180Y4353140I-4J10158D01*
G01X1379200Y4374130D01*
Y4469140D01*
G02X1414800I17800J39360D01*
G01Y4388870D01*
X1568800Y4234870D01*
Y4196220D01*
X1583200D01*
Y4297130D01*
X1539330Y4341000D01*
X1536420Y4340120D01*
G02X1565380Y4369080I-12420J41380D01*
G01X1564500Y4366170D01*
X1618800Y4311870D01*
Y4196220D01*
X1633200D01*
Y4469140D01*
G02X1668800I17800J39360D01*
G01Y4196220D01*
X1683200D01*
Y4311870D01*
X1737500Y4366170D01*
X1736620Y4369080D01*
G02X1765580Y4340120I41380J12420D01*
G01X1762670Y4341000D01*
X1718800Y4297130D01*
Y4196220D01*
X1733200D01*
Y4234870D01*
X1887200Y4388870D01*
Y4469140D01*
G02X1922800I17800J39360D01*
G01Y4374130D01*
X1901820Y4353140D01*
G03X1909000Y4335800I7184J-7182D01*
G01X1961130D01*
X1991500Y4366170D01*
X1990620Y4369080D01*
G02X2019580Y4340120I41380J12420D01*
G01X2016670Y4341000D01*
X1975870Y4300200D01*
X1912370D01*
X1818800Y4206630D01*
Y4196220D01*
X1828720D01*
Y4051220D01*
X1973720D01*
Y4041300D01*
X1984130D01*
X2077700Y4134870D01*
Y4198370D01*
X2118500Y4239170D01*
X2117620Y4242080D01*
G02X2146580Y4213120I41380J12420D01*
G01X2143670Y4214000D01*
X2113300Y4183630D01*
Y4131500D01*
G03X2130640Y4124320I10158J4D01*
G01X2151630Y4145300D01*
X2246640D01*
G02Y4109700I39360J-17800D01*
G01X2166370D01*
X2012370Y3955700D01*
X1973720D01*
Y3941300D01*
X2074630D01*
X2118500Y3985170D01*
X2117620Y3988080D01*
G02X2146580Y3959120I41380J12420D01*
G01X2143670Y3960000D01*
X2089370Y3905700D01*
X1973720D01*
Y3891300D01*
X2246640D01*
G02Y3855700I39360J-17800D01*
G01X1973720D01*
Y3841300D01*
X2089370D01*
X2143670Y3787000D01*
X2146580Y3787880D01*
G02X2117620Y3758920I12420J-41380D01*
G01X2118500Y3761830D01*
X2074630Y3805700D01*
X1973720D01*
Y3791300D01*
X2012370D01*
X2166370Y3637300D01*
X2246640D01*
G02Y3601700I39360J-17800D01*
G01X2151630D01*
X2130640Y3622680D01*
G03X2113300Y3615500I-7182J-7184D01*
G01Y3563370D01*
X2143670Y3533000D01*
X2146580Y3533880D01*
G02X2117620Y3504920I12420J-41380D01*
G01X2118500Y3507830D01*
X2077700Y3548630D01*
Y3612130D01*
X1984130Y3705700D01*
X1973720D01*
Y3695780D01*
X1828720D01*
Y3550780D01*
X1818800D01*
Y3540370D01*
X1912370Y3446800D01*
X1975870D01*
X2016670Y3406000D01*
X2019580Y3406880D01*
G02X1990620Y3377920I12420J-41380D01*
G01X1991500Y3380830D01*
X1961130Y3411200D01*
X1909000D01*
G03X1901820Y3393860I4J-10158D01*
G01X1922800Y3372870D01*
Y3277860D01*
G02X1887200I-17800J-39360D01*
G01Y3358130D01*
X1733200Y3512130D01*
Y3550780D01*
X1718800D01*
Y3449870D01*
X1762670Y3406000D01*
X1765580Y3406880D01*
G02X1736620Y3377920I12420J-41380D01*
G01X1737500Y3380830D01*
X1683200Y3435130D01*
Y3550780D01*
X1668800D01*
Y3277860D01*
G02X1633200I-17800J-39360D01*
G01Y3550780D01*
X1618800D01*
Y3435130D01*
X1564500Y3380830D01*
X1565380Y3377920D01*
G02X1536420Y3406880I-41380J-12420D01*
G01X1539330Y3406000D01*
X1583200Y3449870D01*
Y3550780D01*
X1568800D01*
Y3512130D01*
X1414800Y3358130D01*
Y3277860D01*
G02Y3199140I-17800J-39360D01*
G01Y3118870D01*
X1467870Y3065800D01*
X1848870D01*
X1922800Y2991870D01*
Y2946420D01*
X1993920D01*
Y2768580D01*
X1816080D01*
Y2946420D01*
X1887200D01*
Y2977130D01*
X1834130Y3030200D01*
X1453130D01*
X1379200Y3104130D01*
Y3199140D01*
G02Y3277860I17800J39360D01*
G01Y3372870D01*
X1400180Y3393860D01*
G03X1393000Y3411200I-7184J7182D01*
G01X1340870D01*
X1310500Y3380830D01*
X1311380Y3377920D01*
G02X1287800Y3326140I-41378J-12416D01*
G01Y3055370D01*
X1340870Y3002300D01*
X1658370D01*
X1732300Y2928370D01*
Y2737870D01*
X1785370Y2684800D01*
X2039370D01*
X2113300Y2610870D01*
Y2356870D01*
X2166370Y2303800D01*
X2373640D01*
G02X2454380Y2273580I39364J-17797D01*
G01X2453500Y2270670D01*
X2641370Y2082800D01*
X2786000D01*
G03X2793180Y2100140I-4J10158D01*
G01X2776200Y2117130D01*
Y2373640D01*
G02X2806420Y2454380I17797J39364D01*
G01X2809330Y2453500D01*
X2932200Y2576370D01*
Y2794780D01*
X2924780D01*
Y2899780D01*
X2769780D01*
Y2907200D01*
X2614870D01*
X2430800Y2723130D01*
Y2706360D01*
G02X2395200I-17800J-39360D01*
G01Y2737870D01*
X2600130Y2942800D01*
X2769780D01*
Y2957200D01*
X2537870D01*
X2453500Y2872830D01*
X2454380Y2869920D01*
G02X2425420Y2898880I-41380J-12420D01*
G01X2428330Y2898000D01*
X2523130Y2992800D01*
X2769780D01*
Y3007200D01*
X2492130D01*
X2428330Y3071000D01*
X2425420Y3070120D01*
G02X2454380Y3099080I-12420J41380D01*
G01X2453500Y3096170D01*
X2506870Y3042800D01*
X2769780D01*
Y3057200D01*
X2632630D01*
X2428330Y3261500D01*
X2425420Y3260620D01*
G02X2454380Y3289580I-12420J41380D01*
G01X2453500Y3286670D01*
X2647370Y3092800D01*
X2769780D01*
Y3100220D01*
X2924780D01*
Y3205220D01*
X2932200D01*
Y3456130D01*
X2809330Y3579000D01*
X2806420Y3578120D01*
G02X2776200Y3658860I-12423J41376D01*
G01Y3753870D01*
X2913630Y3891300D01*
X3665200D01*
Y4310630D01*
X3612130Y4363700D01*
X3468360D01*
G02X3387620Y4393920I-39364J17797D01*
G01X3388500Y4396830D01*
X3327930Y4457400D01*
X3148800D01*
G03X3141620Y4440060I4J-10158D01*
G01X3309370Y4272300D01*
X3516640D01*
G02Y4236700I39360J-17800D01*
G01X3294630D01*
X3102230Y4429100D01*
X3074310D01*
X3073010Y4428200D01*
G02X3037380Y4447310I-12911J18698D01*
G03X3032210Y4452480I-5075J95D01*
G02X3031390I-410J22720D01*
G03X3026220Y4447310I-95J-5075D01*
G02X2980780I-22720J-410D01*
G03X2975610Y4452480I-5075J95D01*
G02X2974790I-410J22720D01*
G03X2969620Y4447310I-95J-5075D01*
G02X2933990Y4428200I-22719J-412D01*
G01X2932690Y4429100D01*
X2739770D01*
X2547370Y4236700D01*
X2452360D01*
G02X2395200Y4293860I-39360J17800D01*
G01Y4310630D01*
X2268200Y4437630D01*
Y5644130D01*
X2215130Y5697200D01*
X2120920D01*
Y5626080D01*
X1943080D01*
Y5803920D01*
X2014200D01*
Y6134080D01*
X1943080D01*
Y6311920D01*
X2120920D01*
Y6134080D01*
X2049800D01*
Y5803920D01*
X2120920D01*
Y5732800D01*
X2229870D01*
X2303800Y5658870D01*
Y5224800D01*
X3309370D01*
X3446800Y5087370D01*
Y4780300D01*
X3516640D01*
G02Y4744700I39360J-17800D01*
G01X3446800D01*
Y4674860D01*
G02X3468360Y4653300I-17800J-39360D01*
G01X3937000D01*
G02X3949590Y4648090I6J-17802D01*
G01X4028860Y4568820D01*
G03X4046200Y4576000I7182J7184D01*
G01Y4800580D01*
X3975080D01*
Y4978420D01*
X4152920D01*
Y4800580D01*
X4081800D01*
Y4406920D01*
X4152920D01*
Y4229080D01*
X3975080D01*
Y4406920D01*
X4046200D01*
Y4501130D01*
X3937000Y4610330D01*
X3891300Y4564630D01*
Y3675630D01*
X3817370Y3601700D01*
X3242500D01*
G03X3235320Y3584360I4J-10158D01*
G01X3309370Y3510300D01*
X3626870D01*
X3753870Y3383300D01*
X3962380D01*
Y3454420D01*
X4140220D01*
Y3276580D01*
X4069100D01*
Y2971550D01*
X4081800Y2958850D01*
Y2946420D01*
X4152920D01*
Y2768580D01*
X4081800D01*
Y2120920D01*
X4152920D01*
Y1943080D01*
X4081800D01*
Y1358920D01*
X4152920D01*
Y1181080D01*
X4081800D01*
Y914420D01*
X4152920D01*
Y761750D01*
X4198370Y716300D01*
X5517130D01*
X5570200Y769370D01*
Y1213870D01*
X5644130Y1287800D01*
X5753080D01*
Y1358920D01*
X5930920D01*
Y1181080D01*
X5859800D01*
Y1041420D01*
X5930920D01*
Y863580D01*
X5753080D01*
Y1041420D01*
X5824200D01*
Y1181080D01*
X5753080D01*
Y1252200D01*
X5658870D01*
X5605800Y1199130D01*
Y754630D01*
X5531870Y680700D01*
X4183630D01*
X4127750Y736580D01*
X3975080D01*
Y914420D01*
X4046200D01*
Y1181080D01*
X3975080D01*
Y1358920D01*
X4046200D01*
Y1943080D01*
X3975080D01*
Y2120920D01*
X4046200D01*
Y2768580D01*
X3975080D01*
Y2839700D01*
X3690370D01*
X3596500Y2745830D01*
X3597380Y2742920D01*
G02X3514620I-41380J-12420D01*
G01X3515500Y2745830D01*
X3354130Y2907200D01*
X3230220D01*
Y2899780D01*
X3075220D01*
Y2794780D01*
X2967800D01*
Y2561630D01*
X2834500Y2428330D01*
X2835380Y2425420D01*
G02X2811800Y2373640I-41378J-12416D01*
G01Y2131870D01*
X2847950Y2095720D01*
X2944220D01*
Y2082720D01*
X3055780D01*
Y2095720D01*
X3177220D01*
Y2082800D01*
X3327630D01*
X3515500Y2270670D01*
X3514620Y2273580D01*
G02X3543580Y2244620I41380J12420D01*
G01X3540670Y2245500D01*
X3342370Y2047200D01*
X3177220D01*
Y2017800D01*
X3468370D01*
X3500370Y2049800D01*
X3516640D01*
G02X3597380Y2019580I39364J-17797D01*
G01X3596500Y2016670D01*
X3700800Y1912370D01*
Y818130D01*
X3596500Y713830D01*
X3597380Y710920D01*
G02X3514620I-41380J-12420D01*
G01X3515500Y713830D01*
X3344630Y884700D01*
X3187720D01*
Y872280D01*
X3062280D01*
Y1037550D01*
X3020130Y1079700D01*
X2962740D01*
G03X2959140Y1071030I-4J-5081D01*
G01X2960580Y1069590D01*
Y995410D01*
X2937720Y972550D01*
Y872280D01*
X2812280D01*
Y884700D01*
X2624370D01*
X2453500Y713830D01*
X2454380Y710920D01*
G02Y686080I-41380J-12420D01*
G01X2453500Y683170D01*
X2547370Y589300D01*
X3675630D01*
X3739130Y652800D01*
X6787130D01*
X6903700Y769370D01*
Y4628130D01*
X6812430Y4719400D01*
X6672470D01*
Y4701980D01*
X6484530D01*
Y4772420D01*
X6672470D01*
Y4755000D01*
X6827170D01*
X6939300Y4642870D01*
Y754630D01*
X6801870Y617200D01*
X3753870D01*
X3690370Y553700D01*
G37*
G54D51*
X3944000Y6255000D03*
G54D53*
X4978500Y3599100D03*
Y3517800D03*
Y4493300D03*
Y4412100D03*
Y4737200D03*
X6578500Y3517800D03*
Y3599100D03*
Y3680300D03*
Y3761700D03*
Y3842900D03*
Y3924200D03*
Y4005500D03*
Y4086800D03*
Y4168100D03*
Y4249400D03*
Y4330700D03*
Y4412000D03*
Y4493300D03*
G54D52*
X5168800Y3327500D03*
X5250100D03*
X5331300D03*
X5575200D03*
X5900500Y4927500D03*
X5819200D03*
X5737900D03*
X5656600D03*
X5575300D03*
X5494000D03*
X6144300Y3327500D03*
X6225600D03*
X6306900D03*
X6388200D03*
Y4927500D03*
X6225700D03*
X6063100D03*
X5981800D03*
G54D54*
X5461000Y6413500D03*
X5715000D03*
Y6667500D03*
X5969000D03*
G54D48*
X552500Y6223000D03*
G54D42*
X159000Y2892500D03*
Y3107500D03*
G54D44*
X751000Y1246000D03*
G54D50*
X1460500Y2256500D03*
G54D43*
X414000Y2690000D03*
G54D41*
X254000Y1397000D03*
X317500Y5080000D03*
Y4826000D03*
G54D49*
X1381000Y1016000D03*
G54D47*
X988000Y5715000D03*
G54D45*
X825500Y1623000D03*
X1460500Y1933000D03*
G54D46*
X685800Y2286000D03*
Y2794000D03*
X698500Y5207000D03*
X4000500Y5588000D03*
X4394200Y825500D03*
Y1270000D03*
Y2032000D03*
Y2857500D03*
X4381500Y3365500D03*
X4394200Y4318000D03*
Y4889500D03*
X4826000Y1892300D03*
X6032500D03*
%LPD*%
G75*
G36*
G01X779800Y3115500D02*
Y3675630D01*
X790360Y3686180D01*
G02X807700Y3679000I7182J-7184D01*
G01Y3118870D01*
X797140Y3108320D01*
G02X779800Y3115500I-7182J7184D01*
G37*
G36*
G01X506720Y3017800D02*
Y3047200D01*
X711500D01*
G02X718680Y3029860I-4J-10158D01*
G01X706630Y3017800D01*
X506720D01*
G37*
G36*
G01X885820Y3781640D02*
X937170Y3833000D01*
X940080Y3832120D01*
G03X991860Y3855700I12416J41378D01*
G01X1328280D01*
Y3841300D01*
X1149130D01*
X1094830Y3787000D01*
X1091920Y3787880D01*
G03X1040140Y3764300I-12416J-41378D01*
G01X893000D01*
G02X885820Y3781640I4J10158D01*
G37*
G36*
G01X1473720Y3696220D02*
Y4050780D01*
X1828280D01*
Y3696220D01*
X1473720D01*
G37*
G36*
G01X3540670Y739000D02*
X3359370Y920300D01*
X3187720D01*
Y949700D01*
X3470130D01*
X3515500Y904330D01*
X3514620Y901420D01*
G03X3543580Y930380I41380J-12420D01*
G01X3540670Y929500D01*
X3484870Y985300D01*
X3187720D01*
Y1014700D01*
X3452870D01*
X3540670Y1102500D01*
X3543580Y1101620D01*
G03X3514620Y1130580I12420J41380D01*
G01X3515500Y1127670D01*
X3438130Y1050300D01*
X3187720D01*
Y1127720D01*
X3062280D01*
Y1112420D01*
G02X3044940Y1105240I-10158J4D01*
G01X3034870Y1115300D01*
X2937720D01*
Y1127720D01*
X2812280D01*
Y1115300D01*
X2529370D01*
X2430800Y1213870D01*
Y1294140D01*
G03X2400580Y1374880I-17797J39364D01*
G01X2397670Y1374000D01*
X2303800Y1467870D01*
Y2151630D01*
X2397670Y2245500D01*
X2400580Y2244620D01*
G03X2425420I12420J41380D01*
G01X2428330Y2245500D01*
X2626630Y2047200D01*
X2822780D01*
Y1904280D01*
X2944220D01*
Y1917280D01*
X3055780D01*
Y1904280D01*
X3177220D01*
Y1917200D01*
X3264630D01*
X3515500Y1666330D01*
X3514620Y1663420D01*
G03X3543580Y1692380I41380J-12420D01*
G01X3540670Y1691500D01*
X3279370Y1952800D01*
X3177220D01*
Y1982200D01*
X3483110D01*
X3506980Y2006070D01*
G02X3522130Y2005190I7183J-7187D01*
G03X3568420Y1990620I33876J26808D01*
G01X3571330Y1991500D01*
X3665200Y1897630D01*
Y832870D01*
X3571330Y739000D01*
X3568420Y739880D01*
G03X3543580I-12420J-41380D01*
G01X3540670Y739000D01*
G37*
G36*
G01X3675630Y3764300D02*
X3104130D01*
X2999830Y3660000D01*
X2996920Y3660880D01*
G03X2966700Y3580140I-12423J-41376D01*
G01Y3563870D01*
X2982200Y3548370D01*
Y3205220D01*
X2967800D01*
Y3470870D01*
X2834500Y3604170D01*
X2835380Y3607080D01*
G03X2811800Y3658860I-41378J12416D01*
G01Y3739130D01*
X2928370Y3855700D01*
X3680210D01*
X3700800Y3876290D01*
Y4325370D01*
X3626870Y4399300D01*
X3468360D01*
G03X3416580Y4422880I-39364J-17798D01*
G01X3413670Y4422000D01*
X3367320Y4468360D01*
G02X3374500Y4485700I7184J7182D01*
G01X3511640D01*
G03X3590360I39360J17800D01*
G01X3680630D01*
X3792200Y4374130D01*
Y3880870D01*
X3675630Y3764300D01*
G37*
G36*
G01X2914020Y4493000D02*
X2626330D01*
X2555330Y4422000D01*
X2552420Y4422880D01*
G03X2581380Y4393920I-12420J-41380D01*
G01X2580500Y4396830D01*
X2641070Y4457400D01*
X2693200D01*
G02X2700380Y4440060I-4J-10158D01*
G01X2532630Y4272300D01*
X2452360D01*
G03X2430800Y4293860I-39360J-17800D01*
G01Y4325370D01*
X2303800Y4452370D01*
Y5189200D01*
X3294630D01*
X3411200Y5072630D01*
Y4780300D01*
X3358130D01*
X3155730Y4577900D01*
X3074310D01*
X3073010Y4578800D01*
G03X3037750Y4564200I-12910J-18698D01*
G01X3037470Y4562640D01*
X3031100Y4556270D01*
X3026270Y4561100D01*
X3026050Y4562840D01*
G03X3022200Y4573010I-22556J-2725D01*
G01X3021300Y4574310D01*
Y5021640D01*
G03X2985700I-17800J39360D01*
G01Y4574310D01*
X2984800Y4573010D01*
G03X2980780Y4559690I18699J-12910D01*
G02X2975610Y4554520I-5075J-95D01*
G03X2974790I-410J-22720D01*
G02X2969620Y4559690I-95J5075D01*
G03X2924180Y4559860I-22719J410D01*
G02X2914020Y4549600I-10159J-101D01*
G01X2651070D01*
X2580500Y4620170D01*
X2581380Y4623080D01*
G03X2552420Y4594120I-41380J12420D01*
G01X2555330Y4595000D01*
X2636330Y4514000D01*
X2914020D01*
G02X2924180Y4503740I1J-10159D01*
G03Y4503260I22720J-240D01*
G02X2914020Y4493000I-10159J-101D01*
G37*
G36*
G01X3975080Y2875300D02*
X3675630D01*
X3571330Y2771000D01*
X3568420Y2771880D01*
G03X3543580I-12420J-41380D01*
G01X3540670Y2771000D01*
X3368870Y2942800D01*
X3230220D01*
Y2957200D01*
X3494630D01*
X3515500Y2936330D01*
X3514620Y2933420D01*
G03X3543580Y2962380I41380J-12420D01*
G01X3540670Y2961500D01*
X3509370Y2992800D01*
X3230220D01*
Y3007200D01*
X3476870D01*
X3540670Y3071000D01*
X3543580Y3070120D01*
G03X3514620Y3099080I12420J41380D01*
G01X3515500Y3096170D01*
X3462130Y3042800D01*
X3230220D01*
Y3057200D01*
X3336370D01*
X3540670Y3261500D01*
X3543580Y3260620D01*
G03X3514620Y3289580I12420J41380D01*
G01X3515500Y3286670D01*
X3321630Y3092800D01*
X3230220D01*
Y3100220D01*
X3075220D01*
Y3205220D01*
X3067800D01*
Y3487130D01*
X3159670Y3579000D01*
X3162580Y3578120D01*
G03X3187420I12420J41380D01*
G01X3190330Y3579000D01*
X3294630Y3474700D01*
X3612130D01*
X3739130Y3347700D01*
X3962380D01*
Y3276580D01*
X4033500D01*
Y2956810D01*
X4035220Y2955090D01*
G02X4031620Y2946420I-3596J-3589D01*
G01X3975080D01*
Y2875300D01*
G37*
G36*
G01X2930220Y2955220D02*
Y3044780D01*
X3069780D01*
Y2955220D01*
X2930220D01*
G37*
G36*
G01X3511640Y4521300D02*
X3364500D01*
G02X3357320Y4538640I4J10158D01*
G01X3413670Y4595000D01*
X3416580Y4594120D01*
G03X3468360Y4617700I12416J41378D01*
G01X3869500D01*
G02X3876680Y4600360I-4J-10158D01*
G01X3855700Y4579370D01*
Y3690370D01*
X3802630Y3637300D01*
X3214360D01*
G03X3133620Y3607080I-39364J-17797D01*
G01X3134500Y3604170D01*
X3032200Y3501870D01*
Y3205220D01*
X3017800D01*
Y3563110D01*
X3010430Y3570480D01*
G02X3011310Y3585630I7187J7183D01*
G03X3025880Y3631920I-26808J33876D01*
G01X3025000Y3634830D01*
X3118870Y3728700D01*
X3690370D01*
X3827800Y3866130D01*
Y4388870D01*
X3695370Y4521300D01*
X3590360D01*
G03X3511640I-39360J-17800D01*
G37*
G36*
G01X3195120Y4566940D02*
X3372870Y4744700D01*
X3411200D01*
Y4674860D01*
G03X3387620Y4623080I17798J-39364D01*
G01X3388500Y4620170D01*
X3317930Y4549600D01*
X3202300D01*
G02X3195120Y4566940I4J10158D01*
G37*
%LPC*%
G75*
G54D55*
X1651000Y3873500D03*
%LPD*%
G75*
G54D10*
X254000Y254000D03*
Y6746000D03*
X6746000Y254000D03*
Y6746000D03*
G54D20*
X1016000Y2286000D03*
X685800D03*
X1016000Y2794000D03*
X685800D03*
X698500Y5207000D03*
X1028700D03*
X698500Y4889500D03*
X1028700D03*
X1701800Y5715000D03*
Y6223000D03*
X1905000Y2857500D03*
Y2527300D03*
X2032000Y5715000D03*
Y6223000D03*
X4064000Y825500D03*
Y1270000D03*
Y2032000D03*
Y2857500D03*
X4051300Y3365500D03*
X4064000Y4318000D03*
Y4889500D03*
X4000500Y5588000D03*
Y5918200D03*
X4394200Y825500D03*
Y1270000D03*
Y2032000D03*
Y2857500D03*
X4381500Y3365500D03*
X4394200Y4318000D03*
Y4889500D03*
X4381500Y5588000D03*
Y5918200D03*
X4826000Y2222500D03*
Y1892300D03*
X4762500Y5905500D03*
Y5575300D03*
X5842000Y952500D03*
Y1270000D03*
X6172200Y952500D03*
Y1270000D03*
X6032500Y2222500D03*
Y1892300D03*
G54D11*
X254000Y1143000D03*
Y1397000D03*
X317500Y5080000D03*
Y4826000D03*
X6731000Y1016000D03*
Y1270000D03*
X6794500Y2857500D03*
Y2603500D03*
G54D30*
X2883500Y1935000D03*
Y2000000D03*
Y2065000D03*
X3116500D03*
Y2000000D03*
Y1935000D03*
G54D21*
X635000Y3519500D03*
Y3719500D03*
G54D12*
X446000Y2221000D03*
X254000Y3683000D03*
X127000Y3873500D03*
X1016000Y2540000D03*
X1079500Y3492500D03*
X952500Y3619500D03*
Y3873500D03*
X1079500Y3746500D03*
Y4000500D03*
Y4254500D03*
X952500Y4127500D03*
X1651000Y3238500D03*
X1397000D03*
X1270000Y3365500D03*
X1143000Y3111500D03*
X1524000Y3365500D03*
X1397000Y4508500D03*
X1270000Y4381500D03*
X1524000D03*
X1651000Y4508500D03*
X1778000Y1968500D03*
Y3365500D03*
X2159000Y3492500D03*
X2032000Y3365500D03*
X1905000Y3238500D03*
X2286000Y3619500D03*
X2159000Y3746500D03*
X2286000Y3873500D03*
X2159000Y4000500D03*
X1905000Y4508500D03*
X1778000Y4381500D03*
X2032000D03*
X2286000Y4127500D03*
X2159000Y4254500D03*
X2413000Y889000D03*
Y1079500D03*
Y698500D03*
Y1333500D03*
Y2286000D03*
Y1714500D03*
Y2032000D03*
Y2857500D03*
X2794000Y2413000D03*
X2413000Y2667000D03*
Y3111500D03*
Y3302000D03*
X2794000Y3619500D03*
X2540000Y4381500D03*
X2413000Y4254500D03*
X2418000Y4503500D03*
X2540000Y4635500D03*
X2413000Y4762500D03*
X2984500Y2159000D03*
Y2413000D03*
X3175000D03*
Y3619500D03*
X3003500Y4019500D03*
X2984500Y3619500D03*
X3429000Y4635500D03*
Y4381500D03*
X3003500Y5061000D03*
X3556000Y889000D03*
Y698500D03*
Y1143000D03*
Y1333500D03*
Y1651000D03*
Y2286000D03*
Y2032000D03*
Y2730500D03*
Y3111500D03*
Y3302000D03*
Y2921000D03*
Y4254500D03*
X3551000Y4503500D03*
X3556000Y4762500D03*
X4254500Y2476500D03*
X4635500Y3429000D03*
X4699000Y3302000D03*
X4592400Y4655900D03*
X4701700Y4574700D03*
X4191000Y4127500D03*
X4394200Y5194300D03*
X4826000Y3238500D03*
X5207000Y3873500D03*
X4762500Y4064000D03*
X5080000Y5334000D03*
X5334000Y3492500D03*
Y3810000D03*
X5900400Y3677900D03*
X5588000Y3556000D03*
X5334000Y4000500D03*
X5778500Y3556000D03*
X5448300Y5194300D03*
X6413500Y4699000D03*
X6286500Y4572000D03*
G54D40*
G01X446000Y2221000D02*
X397740D01*
X396240Y2222500D01*
X127000D01*
X63500Y2159000D01*
Y889000D01*
X166500Y786000D01*
X751000D01*
G01Y1016000D02*
X381000D01*
X254000Y1143000D01*
G01X381000Y1397000D02*
X254000D01*
G01X532000Y1246000D02*
X381000Y1397000D01*
G01X254000Y1303000D02*
Y1397000D01*
G01D02*
Y1491000D01*
G01X160000Y1397000D02*
X254000D01*
G01X446000Y2221000D02*
Y2172740D01*
X444500Y2171240D01*
Y1968500D01*
X480000Y1933000D01*
X825500D01*
G01X426500Y2832200D02*
Y2870000D01*
G01X952500Y3873500D02*
X762000Y3683000D01*
Y3111500D01*
X715500Y3065000D01*
X426500D01*
G01Y3000000D02*
X714000D01*
X825500Y3111500D01*
Y3683000D01*
X889000Y3746500D01*
X1079500D01*
G01X426500Y2870000D02*
X515820D01*
G01X341200D02*
X426500D01*
G01X635000Y3519500D02*
Y3291000D01*
X474000Y3130000D01*
X426500D01*
G01X571500Y4444500D02*
X383720D01*
X383220Y4445000D01*
X317500D01*
X254000Y4381500D01*
Y3683000D01*
G01X127000Y3873500D02*
Y5143500D01*
X190500Y5207000D01*
G01D02*
X698500D01*
G01X444700Y6223000D02*
X552500D01*
G01X1460500Y1623000D02*
X1242000D01*
X1143000Y1524000D01*
Y1079500D01*
X1079500Y1016000D01*
X751000D01*
G01Y1246000D02*
Y1400720D01*
G01Y1246000D02*
X532000D01*
G01X1016000Y2159000D02*
Y1714500D01*
X924500Y1623000D01*
G01D02*
X825500D01*
G01Y1475220D02*
Y1623000D01*
G01X751000Y1400720D02*
X825500Y1475220D01*
G01Y1623000D02*
Y1770800D01*
G01X727700Y1623000D02*
X825500D01*
G01X751000Y1178200D02*
Y1246000D01*
G01D02*
X843800D01*
G01X1016000Y2159000D02*
X812800D01*
G01D02*
X685800Y2286000D01*
G01X1304000Y2256500D02*
X1206500Y2159000D01*
X1016000D01*
G01X685800Y2192000D02*
Y2286000D01*
G01X952500Y3619500D02*
X889000Y3556000D01*
Y3048000D01*
X825500Y2984500D01*
Y2476500D01*
X1016000Y2286000D01*
G01X1460500Y2696500D02*
X1236000D01*
X1079500Y2540000D01*
X1016000D01*
G01X1079500Y3492500D02*
X952500Y3365500D01*
Y3048000D01*
X889000Y2984500D01*
Y2603500D01*
X952500Y2540000D01*
X1016000D01*
G01X1270000Y3365500D02*
X1079500D01*
X1016000Y3302000D01*
Y2794000D01*
G01X685800D02*
Y2286000D01*
G01X591820Y2794000D02*
X685800D01*
G01X515820Y2870000D02*
X591820Y2794000D01*
G01X685800D02*
Y2888000D01*
G01Y2794000D02*
X779800D01*
G01X591800Y2286000D02*
X685800D01*
G01D02*
X779800D01*
G01X952500Y3619500D02*
X1143000D01*
X1297000Y3773500D01*
X1401000D01*
G01Y3873500D02*
X952500D01*
G01X635000Y3719500D02*
Y3883220D01*
X571500Y3946720D01*
Y4064500D01*
G01X952500Y4127500D02*
X1079500D01*
X1233500Y3973500D01*
X1401000D01*
G01X698500Y4889500D02*
X571500Y4762500D01*
Y4444500D01*
G01X1028700Y5207000D02*
Y4889500D01*
G01X3238500Y6730000D02*
X3169920D01*
X3168920Y6731000D01*
X2032000D01*
X1905000Y6604000D01*
Y5461000D01*
X1841500Y5397500D01*
X952500D01*
X889000Y5334000D01*
Y5080000D01*
X698500Y4889500D01*
G01Y5207000D02*
Y5651500D01*
G01Y5113000D02*
Y5207000D01*
G01D02*
X792500D01*
G01X988000Y5715000D02*
X938000D01*
G01D02*
X552500Y6100500D01*
G01X698500Y5651500D02*
X762000Y5715000D01*
G01D02*
X938000D01*
G01X988000Y5617200D02*
Y5715000D01*
G01D02*
Y5812800D01*
G01Y5715000D02*
X1135800D01*
G01X552500Y6100500D02*
Y6223000D01*
G01D02*
Y6290800D01*
G01Y6223000D02*
X660300D01*
G01X1905000Y1714500D02*
X1813500Y1623000D01*
X1460500D01*
G01Y2256500D02*
X1304000D01*
G01X1460500Y1933000D02*
Y2256500D01*
G01Y1933000D02*
X1742500D01*
G01X1143000Y3111500D02*
Y2984500D01*
X1206500Y2921000D01*
X1587500D01*
X1651000Y2857500D01*
Y2349500D01*
X1558000Y2256500D01*
G01D02*
X1460500D01*
G01Y1785200D02*
Y1933000D01*
G01X1362700D02*
X1460500D01*
G01X1651000Y3623500D02*
Y3238500D01*
G01X1905000Y2857500D02*
Y2984500D01*
X1841500Y3048000D01*
X1460500D01*
X1397000Y3111500D01*
Y3238500D01*
G01D02*
Y3365500D01*
X1551000Y3519500D01*
Y3623500D01*
G01X1270000Y3365500D02*
X1333500Y3429000D01*
X1397000D01*
X1501000Y3533000D01*
Y3623500D01*
G01X1270000Y3365500D02*
Y3048000D01*
X1333500Y2984500D01*
X1651000D01*
X1714500Y2921000D01*
Y2730500D01*
X1778000Y2667000D01*
X2032000D01*
X2095500Y2603500D01*
Y2349500D01*
X2159000Y2286000D01*
X2413000D01*
G01X1601000Y3623500D02*
Y3442500D01*
X1524000Y3365500D01*
G01X1401000Y4023500D02*
X1310500D01*
X1079500Y4254500D01*
G01X1501000Y3623500D02*
X1468220D01*
X1401000Y3690720D01*
Y3723500D01*
G01Y3823500D02*
X1156500D01*
X1079500Y3746500D01*
G01X1401000Y3923500D02*
X1156500D01*
G01D02*
X1079500Y4000500D01*
G01X1397000Y4508500D02*
Y4381500D01*
X1551000Y4227500D01*
Y4123500D01*
G01X1270000Y4381500D02*
X1333500Y4318000D01*
X1397000D01*
X1501000Y4214000D01*
Y4123500D01*
G01X1601000D02*
Y4304500D01*
X1524000Y4381500D01*
G01X1651000Y4123500D02*
Y4508500D01*
G01X1298000Y5715000D02*
X1701800D01*
G01X1352500Y6223000D02*
X1701800D01*
G01X2413000Y889000D02*
X1968500D01*
X1905000Y952500D01*
Y1714500D01*
G01D02*
Y2527300D01*
G01X1742500Y1933000D02*
X1778000Y1968500D01*
G01X1701000Y3623500D02*
Y3442500D01*
X1778000Y3365500D01*
G01X2032000D02*
X1968500Y3429000D01*
X1905000D01*
X1801000Y3533000D01*
Y3623500D01*
G01X1905000Y3238500D02*
Y3365500D01*
X1751000Y3519500D01*
Y3623500D01*
G01X2159000Y3492500D02*
X2095500Y3556000D01*
Y3619500D01*
X1991500Y3723500D01*
X1901000D01*
G01X2286000Y3619500D02*
X2159000D01*
X2005000Y3773500D01*
X1901000D01*
G01Y3823500D02*
X2082000D01*
X2159000Y3746500D01*
G01X1901000Y3873500D02*
X2286000D01*
G01X1901000Y3923500D02*
X2082000D01*
X2159000Y4000500D01*
G01X2286000Y4127500D02*
X2159000D01*
X2005000Y3973500D01*
X1901000D01*
G01X2159000Y4254500D02*
X2095500Y4191000D01*
Y4127500D01*
X1991500Y4023500D01*
X1901000D01*
G01X1905000Y4508500D02*
Y4381500D01*
X1751000Y4227500D01*
Y4123500D01*
G01X1778000Y4381500D02*
X1701000Y4304500D01*
Y4123500D01*
G01X2032000Y4381500D02*
X1968500Y4318000D01*
X1905000D01*
X1801000Y4214000D01*
Y4123500D01*
G01X1701800Y6223000D02*
Y5715000D01*
G01X2286000Y5207000D02*
Y5651500D01*
X2222500Y5715000D01*
X2032000D01*
G01D02*
Y6223000D01*
G01X5969000Y6413500D02*
X5842000Y6540500D01*
Y6794500D01*
X5778500Y6858000D01*
X1778000D01*
X1701800Y6781800D01*
Y6223000D01*
G01X2875000Y967500D02*
X2491500D01*
X2413000Y889000D01*
G01X2875000Y1032500D02*
X2460000D01*
G01D02*
X2413000Y1079500D01*
G01X2875000Y902500D02*
X2617000D01*
X2413000Y698500D01*
G01D02*
X2540000Y571500D01*
X3683000D01*
X3746500Y635000D01*
X6794500D01*
X6921500Y762000D01*
Y4635500D01*
X6819800Y4737200D01*
X6578500D01*
G01X2413000Y2286000D02*
X2286000Y2159000D01*
Y1460500D01*
X2413000Y1333500D01*
G01D02*
Y1206500D01*
X2522000Y1097500D01*
X2875000D01*
G01X2413000Y1714500D02*
Y1524000D01*
X2603500Y1333500D01*
X3556000D01*
G01X2853500Y2065000D02*
X2634000D01*
X2413000Y2286000D01*
G01X2853500Y2065000D02*
X2883500D01*
G01X2794000Y2413000D02*
Y2124500D01*
X2853500Y2065000D01*
G01X2883500Y1935000D02*
X2633500D01*
G01X2883500Y2000000D02*
X2493260D01*
G01D02*
X2461260Y2032000D01*
X2413000D01*
G01X2633500Y1935000D02*
X2413000Y1714500D01*
G01X2850000Y2975000D02*
X2530500D01*
X2413000Y2857500D01*
G01X2950000Y2875000D02*
Y2569000D01*
X2794000Y2413000D01*
G01X2413000Y2667000D02*
Y2730500D01*
X2607500Y2925000D01*
X2850000D01*
G01Y3025000D02*
X2499500D01*
X2413000Y3111500D01*
G01X2850000Y3075000D02*
X2640000D01*
X2413000Y3302000D01*
G01X2794000Y3619500D02*
Y3746500D01*
X2921000Y3873500D01*
X3672840D01*
X3683000Y3883660D01*
Y4318000D01*
X3619500Y4381500D01*
X3429000D01*
G01X2950000Y3125000D02*
Y3463500D01*
X2794000Y3619500D01*
G01X2975200Y4475200D02*
X2633700D01*
X2540000Y4381500D01*
G01X2413000Y4254500D02*
X2540000D01*
X2732400Y4446900D01*
X2946900D01*
G01X2286000Y5207000D02*
Y4445000D01*
X2413000Y4318000D01*
Y4254500D01*
G01Y4762500D02*
X2603500D01*
X2805900Y4560100D01*
G01X2946900Y4503500D02*
X2418000D01*
G01D02*
Y4709240D01*
X2413000Y4714240D01*
Y4762500D01*
G01X2805900Y4560100D02*
X2946900D01*
G01X2975200Y4531800D02*
X2643700D01*
X2540000Y4635500D01*
G01X3429000D02*
Y5080000D01*
X3302000Y5207000D01*
X2286000D01*
G01X3125000Y1032500D02*
X3445500D01*
X3556000Y1143000D01*
G01X2907500Y1097500D02*
X3027500D01*
X3092500Y1032500D01*
X3125000D01*
G01X2875000Y967500D02*
X2907500D01*
X2942780Y1002780D01*
Y1062220D01*
X2907500Y1097500D01*
G01X3125000Y967500D02*
X3477500D01*
X3556000Y889000D01*
G01X3125000Y902500D02*
X3352000D01*
X3556000Y698500D01*
G01X2875000Y1097500D02*
X2907500D01*
G01X3125000D02*
X3320000D01*
G01D02*
X3556000Y1333500D01*
G01X3116500Y2065000D02*
X3335000D01*
X3556000Y2286000D01*
G01X2984500Y2159000D02*
Y2413000D01*
G01X2883500Y2000000D02*
Y1935000D01*
G01X3116500Y2000000D02*
X3475740D01*
X3507740Y2032000D01*
X3556000D01*
G01X3116500Y1935000D02*
X3272000D01*
X3556000Y1651000D01*
G01X3150000Y2925000D02*
X3361500D01*
X3556000Y2730500D01*
G01X3000000Y2875000D02*
Y2476760D01*
G01X3050000Y2875000D02*
Y2538000D01*
G01D02*
X3175000Y2413000D01*
G01X3000000Y2476760D02*
X2984500Y2461260D01*
Y2413000D01*
G01X3150000Y3025000D02*
X3469500D01*
X3556000Y3111500D01*
G01X3150000Y3075000D02*
X3329000D01*
X3556000Y3302000D01*
G01X3050000Y3125000D02*
Y3494500D01*
X3175000Y3619500D01*
G01X3050000Y2875000D02*
X3000000D01*
G01X3050000D02*
Y2960300D01*
G01Y2875000D02*
X3080300D01*
G01X3000000Y3125000D02*
Y3555740D01*
X2984500Y3571240D01*
Y3619500D01*
G01X3150000Y2975000D02*
X3502000D01*
X3556000Y2921000D01*
G01X3937000Y4635500D02*
X3873500Y4572000D01*
Y3683000D01*
X3810000Y3619500D01*
X3175000D01*
G01D02*
X3302000Y3492500D01*
X3619500D01*
X3746500Y3365500D01*
X4051300D01*
G01X3003500Y4446900D02*
Y4019500D01*
G01X2984500Y3619500D02*
X3111500Y3746500D01*
X3683000D01*
X3810000Y3873500D01*
Y4381500D01*
X3688000Y4503500D01*
X3551000D01*
G01X3031800Y4531800D02*
X3325300D01*
X3429000Y4635500D01*
G01X3031800Y4531800D02*
X3060100Y4560100D01*
G01X3556000Y4762500D02*
X3365500D01*
X3163100Y4560100D01*
X3060100D01*
G01X3429000Y4635500D02*
X3937000D01*
G01X3031800Y4475200D02*
X3335300D01*
X3429000Y4381500D01*
G01X3003500Y4446900D02*
Y4486190D01*
X2986190Y4503500D01*
X2946900D01*
G01Y4560100D02*
Y4587900D01*
G01Y4560100D02*
X2974700D01*
G01X2975700Y4446900D02*
X3003500D01*
G01D02*
X3031300D01*
G01X3003500Y5061000D02*
Y4560100D01*
G01X3556000Y4254500D02*
X3302000D01*
X3109600Y4446900D01*
X3060100D01*
G01Y4503500D02*
X3551000D01*
G01X4184000Y6350000D02*
Y6392780D01*
X4191000Y6399780D01*
Y6540500D01*
X4127500Y6604000D01*
X3365500D01*
X3238500Y6477000D01*
Y5970000D01*
G01Y6730000D02*
X3307080D01*
X3308080Y6731000D01*
X4762500D01*
X4889500Y6604000D01*
Y5702300D01*
X4762500Y5575300D01*
G01X5842000Y1270000D02*
X5651500D01*
X5588000Y1206500D01*
Y762000D01*
X5524500Y698500D01*
X4191000D01*
X4064000Y825500D01*
G01D02*
Y1270000D01*
G01X3556000Y2032000D02*
X3683000Y1905000D01*
Y825500D01*
X3556000Y698500D01*
G01X4064000Y1270000D02*
Y2032000D01*
G01D02*
Y2857500D01*
G01D02*
X3683000D01*
X3556000Y2730500D01*
G01X4051300Y3365500D02*
Y2964180D01*
X4064000Y2951480D01*
Y2857500D01*
G01X3937000Y4635500D02*
X4064000Y4508500D01*
G01D02*
Y4318000D01*
G01Y4889500D02*
Y4508500D01*
G01X4000500Y5588000D02*
Y5270500D01*
G01D02*
X4076700Y5194300D01*
X4394200D01*
G01X3873500Y5715000D02*
X4000500Y5588000D01*
G01X3873500Y6209500D02*
Y5715000D01*
G01X4000500Y5588000D02*
Y5682000D01*
G01X3906500Y5588000D02*
X4000500D01*
G01D02*
X4094500D01*
G01X3944000Y6255000D02*
X3919000D01*
X3873500Y6209500D01*
G01X3944000Y6212200D02*
Y6255000D01*
G01D02*
Y6297800D01*
G01Y6255000D02*
X4011800D01*
G01X3944000Y6445000D02*
X3969000D01*
X4064000Y6350000D01*
Y6223000D01*
X4000500Y6159500D01*
Y5918200D01*
G01D02*
X4381500D01*
G01X4394200Y825500D02*
Y1270000D01*
G01Y731500D02*
Y825500D01*
G01X4300200D02*
X4394200D01*
G01D02*
X4488200D01*
G01X4394200Y2032000D02*
Y1270000D01*
G01X4300200D02*
X4394200D01*
G01D02*
X4488200D01*
G01X4254500Y2476500D02*
Y2171700D01*
G01X4826000Y1892300D02*
X4648200D01*
G01X4394200Y2032000D02*
Y2857500D01*
G01X4254500Y2171700D02*
X4394200Y2032000D01*
G01X4648200Y1892300D02*
X4508500Y2032000D01*
G01D02*
X4394200D01*
G01Y2857500D02*
Y3035300D01*
G01X4300200Y2857500D02*
X4394200D01*
G01D02*
X4488200D01*
G01X4381500Y3365500D02*
Y3048000D01*
G01D02*
X5524500D01*
X5575200Y3098700D01*
G01X4394200Y3035300D02*
X4381500Y3048000D01*
G01X4191000Y3556000D02*
X4381500Y3365500D01*
G01D02*
Y3459500D01*
G01X4287500Y3365500D02*
X4381500D01*
G01D02*
X4475500D01*
G01X4635500Y3429000D02*
X4572000Y3492500D01*
Y4254500D01*
X4648300Y4330800D01*
X4978500D01*
G01X4191000Y4127500D02*
Y3556000D01*
G01X4699000Y3302000D02*
X4762500Y3365500D01*
Y3873500D01*
X4635500Y4000500D01*
Y4191000D01*
X4694000Y4249500D01*
X4978500D01*
G01X4592400Y4655900D02*
X4978500D01*
G01X4394200Y4318000D02*
Y4889500D01*
G01Y4318000D02*
X4254500D01*
G01D02*
X4191000Y4254500D01*
Y4127500D01*
G01X4394200Y4224000D02*
Y4318000D01*
G01D02*
X4488200D01*
G01X4381500Y5588000D02*
X4508500D01*
X4572000Y5524500D01*
Y4953000D01*
X4635500Y4889500D01*
X5016500D01*
X5143500Y4762500D01*
X5334000D01*
X5461000Y4635500D01*
Y3746500D01*
X5394900Y3680400D01*
X4978500D01*
G01X4394200Y4889500D02*
Y5194300D01*
G01X4300200Y4889500D02*
X4394200D01*
G01D02*
X4488200D01*
G01X4762500Y5905500D02*
Y6286500D01*
X4699000Y6350000D01*
X4184000D01*
G01X4826000Y1892300D02*
X6032500D01*
G01X4826000Y1798300D02*
Y1892300D01*
G01D02*
Y1986300D01*
G01Y2222500D02*
X5049500Y2446000D01*
Y2667000D01*
G01X5656500Y3327500D02*
Y2981220D01*
X5342280Y2667000D01*
X5049500D01*
G01X4826000Y3238500D02*
Y3993150D01*
X4919750Y4086900D01*
X4978500D01*
G01Y3761700D02*
X5285700D01*
X5334000Y3810000D01*
G01X4978500Y3843000D02*
X5128240D01*
X5158740Y3873500D01*
X5207000D01*
G01X5334000Y4000500D02*
X5207000D01*
X5130800Y3924300D01*
X4978500D01*
G01X4762500Y4064000D02*
X4866700Y4168200D01*
X4978500D01*
G01Y4574700D02*
X4701700D01*
G01X5331400Y4868750D02*
X5291120Y4828470D01*
X5209080D01*
X5168800Y4868750D01*
Y4927500D01*
G01D02*
Y5245200D01*
X5080000Y5334000D01*
G01X5448300Y5194300D02*
X5397500Y5143500D01*
X5334000D01*
X5250100Y5059600D01*
G01D02*
Y4927500D01*
G01X5209800D02*
X5250100D01*
G01D02*
X5290400D01*
G01X5461000Y6667500D02*
X5143500D01*
X5080000Y6604000D01*
Y5334000D01*
G01X5842000Y1270000D02*
Y952500D01*
G01X5412700Y3327500D02*
Y3426530D01*
X5346730Y3492500D01*
X5334000D01*
G01X5493900Y3327500D02*
Y3426530D01*
X5461000Y3459430D01*
Y3619500D01*
X5524500Y3683000D01*
Y4699000D01*
X5461000Y4762500D01*
G01X5575200Y3098700D02*
Y3327500D01*
G01D02*
Y3426550D01*
G01X5534900Y3327500D02*
X5575200D01*
G01D02*
X5615500D01*
G01X5737800D02*
Y3046480D01*
X5999500Y2784780D01*
Y2667000D01*
G01X6172200Y952500D02*
X6032500Y1092200D01*
Y1333500D01*
X6350000Y1651000D01*
Y2794000D01*
X6286500Y2857500D01*
X6032500D01*
X5819100Y3070900D01*
Y3327500D01*
G01D02*
Y3515400D01*
X5778500Y3556000D01*
G01X6306900Y4927500D02*
Y4782900D01*
X6223000Y4699000D01*
X5651500D01*
X5588000Y4635500D01*
Y3556000D01*
G01X5461000Y4762500D02*
X5395030Y4828470D01*
X5371680D01*
X5331400Y4868750D01*
G01X5461000Y4762500D02*
X6096000D01*
X6144300Y4810800D01*
Y4927500D01*
G01X5331400Y4868750D02*
Y4927500D01*
G01X5448300Y5194300D02*
X5499100Y5143500D01*
X5969000D01*
X6063100Y5049400D01*
G01X6172200Y952500D02*
X6573520D01*
X6637020Y1016000D01*
X6731000D01*
G01X6172200Y1270000D02*
X6731000D01*
G01X6172200D02*
X6413500Y1511300D01*
Y2857500D01*
X6350000Y2921000D01*
X6096000D01*
X5900400Y3116600D01*
Y3327500D01*
G01X6032500Y1798300D02*
Y1892300D01*
G01D02*
Y1986300D01*
G01Y1892300D02*
X6126500D01*
G01X5999500Y2667000D02*
Y2349480D01*
X6032500Y2316480D01*
Y2222500D01*
G01X5900400Y3327500D02*
Y3677900D01*
G01X6794500Y2603500D02*
X6413500Y2984500D01*
X6159500D01*
X5981700Y3162300D01*
Y3327500D01*
G01X6794500Y2857500D02*
X6540500Y3111500D01*
X6159500D01*
X6063000Y3208000D01*
Y3327500D01*
G01X6413500Y4699000D02*
X6456600Y4655900D01*
X6578500D01*
G01X6286500Y4572000D02*
X6476870D01*
X6479470Y4574600D01*
X6578500D01*
G01X6063100Y5049400D02*
Y4927500D01*
G01Y5049400D02*
X6096000Y5082300D01*
Y6540500D01*
G01X6063100Y4828450D02*
Y4927500D01*
G01X6022800D02*
X6063100D01*
G01D02*
X6103400D01*
G01X6096000Y6540500D02*
X5969000Y6667500D01*
G01Y6598900D02*
Y6667500D01*
G01D02*
Y6736100D01*
G01X5900400Y6667500D02*
X5969000D01*
G01D02*
X6037600D01*
G54D22*
X988000Y5715000D03*
X1298000D03*
G54D13*
X159000Y2680000D03*
Y3320000D03*
G54D31*
X2850000Y2925000D03*
Y2975000D03*
Y3025000D03*
Y3075000D03*
X3150000D03*
Y3025000D03*
Y2975000D03*
Y2925000D03*
G54D14*
X159000Y2892500D03*
Y3107500D03*
G54D23*
X552500Y6223000D03*
X1352500D03*
G54D32*
X3000000Y2000000D03*
G54D24*
X1381000Y1016000D03*
G54D15*
X414000Y2690000D03*
Y3310000D03*
G54D33*
X3050000Y2875000D03*
X3000000D03*
X2950000D03*
Y3125000D03*
X3000000D03*
X3050000D03*
G54D25*
X1460500Y2256500D03*
Y2696500D03*
G54D34*
X3060100Y4446900D03*
X3003500D03*
X2946900D03*
X3031800Y4475200D03*
X2975200D03*
X3060100Y4503500D03*
X2946900D03*
X3031800Y4531800D03*
X2975200D03*
X3060100Y4560100D03*
X3003500D03*
X2946900D03*
G54D16*
X426500Y2870000D03*
Y2935000D03*
Y3000000D03*
Y3065000D03*
Y3130000D03*
G54D26*
X1651000Y3873500D03*
G54D35*
X3238500Y5970000D03*
Y6730000D03*
X5461000Y6413500D03*
X5715000D03*
X5461000Y6667500D03*
X5715000D03*
X5969000Y6413500D03*
Y6667500D03*
G54D17*
X571500Y4064500D03*
Y4444500D03*
G54D18*
X751000Y1016000D03*
Y786000D03*
Y1246000D03*
G54D36*
X3944000Y6255000D03*
Y6445000D03*
X4184000Y6350000D03*
G54D27*
X1501000Y4123500D03*
X1551000D03*
X1601000D03*
X1651000D03*
Y3623500D03*
X1601000D03*
X1551000D03*
X1501000D03*
X1701000Y4123500D03*
X1751000D03*
X1801000D03*
Y3623500D03*
X1751000D03*
X1701000D03*
G54D19*
X825500Y1623000D03*
Y1933000D03*
X1460500Y1623000D03*
Y1933000D03*
G54D37*
X5049500Y2667000D03*
X5999500D03*
G54D28*
X1401000Y3723500D03*
Y3773500D03*
Y3823500D03*
Y3873500D03*
Y3923500D03*
Y3973500D03*
Y4023500D03*
X1901000D03*
Y3973500D03*
Y3923500D03*
Y3873500D03*
Y3823500D03*
Y3773500D03*
Y3723500D03*
G54D38*
X5250100Y3327500D03*
X5168800D03*
Y4927500D03*
X5250100D03*
X5819100Y3327500D03*
X5737800D03*
X5656500D03*
X5575200D03*
X5493900D03*
X5412700D03*
X5331300D03*
X5331400Y4927500D03*
X5412700D03*
X5494000D03*
X5575300D03*
X5656600D03*
X5737900D03*
X5819200D03*
X6388200Y3327500D03*
X6306900D03*
X6225600D03*
X6144300D03*
X6063000D03*
X5981700D03*
X5900400D03*
X5900500Y4927500D03*
X5981800D03*
X6063100D03*
X6144300D03*
X6225700D03*
X6306900D03*
X6388200D03*
G54D29*
X2875000Y1032500D03*
Y967500D03*
Y902500D03*
Y1097500D03*
X3125000Y902500D03*
Y967500D03*
Y1032500D03*
Y1097500D03*
G54D39*
X4978500Y3517800D03*
Y3599100D03*
Y3680400D03*
Y3761700D03*
Y3843000D03*
Y3924300D03*
Y4005600D03*
Y4086900D03*
Y4168200D03*
Y4249500D03*
Y4330800D03*
Y4412100D03*
Y4493300D03*
Y4574700D03*
Y4655900D03*
Y4737200D03*
X6578500Y4086800D03*
Y4005500D03*
Y3924200D03*
Y3842900D03*
Y3761700D03*
Y3680300D03*
Y3599100D03*
Y3517800D03*
Y4655900D03*
Y4574600D03*
Y4493300D03*
Y4412000D03*
Y4330700D03*
Y4249400D03*
Y4168100D03*
Y4737200D03*
M02*
