G04 ================== begin FILE IDENTIFICATION RECORD ==================*
G04 Layout Name:  C:/project/allegro/SENSOR BOARD.brd*
G04 Film Name:    DrillDraw*
G04 File Format:  Gerber RS274X*
G04 File Origin:  Cadence Allegro 16.6-2015-S108*
G04 Origin Date:  Tue Oct 16 21:24:50 2018*
G04 *
G04 Layer:  MANUFACTURING/NCLEGEND-1-1*
G04 Layer:  MANUFACTURING/NCLEGEND-1-2*
G04 Layer:  BOARD GEOMETRY/OUTLINE*
G04 *
G04 Offset:    (0.0000 0.0000)*
G04 Mirror:    No*
G04 Mode:      Positive*
G04 Rotation:  0*
G04 FullContactRelief:  No*
G04 UndefLineWidth:     0.1000*
G04 ================== end FILE IDENTIFICATION RECORD ====================*
%FSLAX25Y25*MOMM*%
%IR0*IPPOS*OFA0.00000B0.00000*MIA0B0*SFA1.00000B1.00000*%
%AMMACRO14*
1,1,.1,-.35,.25*
20,1,.1,-.35,.25,.35,.25,0.0*
1,1,.1,.35,.25*
20,1,.1,.35,.25,.393412,.246202,0.0*
1,1,.1,.393412,.246202*
20,1,.1,.393412,.246202,.435505,.234923,0.0*
1,1,.1,.435505,.234923*
20,1,.1,.435505,.234923,.475,.216506,0.0*
1,1,.1,.475,.216506*
20,1,.1,.475,.216506,.510697,.191511,0.0*
1,1,.1,.510697,.191511*
20,1,.1,.510697,.191511,.541511,.160697,0.0*
1,1,.1,.541511,.160697*
20,1,.1,.541511,.160697,.566506,.125,0.0*
1,1,.1,.566506,.125*
20,1,.1,.566506,.125,.584923,.085505,0.0*
1,1,.1,.584923,.085505*
20,1,.1,.584923,.085505,.596202,.043412,0.0*
1,1,.1,.596202,.043412*
20,1,.1,.596202,.043412,.6,0.0,0.0*
1,1,.1,.6,0.0*
20,1,.1,.6,0.0,.596202,-.043412,0.0*
1,1,.1,.596202,-.043412*
20,1,.1,.596202,-.043412,.584923,-.085505,0.0*
1,1,.1,.584923,-.085505*
20,1,.1,.584923,-.085505,.566506,-.125,0.0*
1,1,.1,.566506,-.125*
20,1,.1,.566506,-.125,.541511,-.160697,0.0*
1,1,.1,.541511,-.160697*
20,1,.1,.541511,-.160697,.510697,-.191511,0.0*
1,1,.1,.510697,-.191511*
20,1,.1,.510697,-.191511,.475,-.216506,0.0*
1,1,.1,.475,-.216506*
20,1,.1,.475,-.216506,.435505,-.234923,0.0*
1,1,.1,.435505,-.234923*
20,1,.1,.435505,-.234923,.393412,-.246202,0.0*
1,1,.1,.393412,-.246202*
20,1,.1,.393412,-.246202,.35,-.25,0.0*
1,1,.1,.35,-.25*
20,1,.1,.35,-.25,-.35,-.25,0.0*
1,1,.1,-.35,-.25*
20,1,.1,-.35,-.25,-.393412,-.246202,0.0*
1,1,.1,-.393412,-.246202*
20,1,.1,-.393412,-.246202,-.435505,-.234923,0.0*
1,1,.1,-.435505,-.234923*
20,1,.1,-.435505,-.234923,-.475,-.216506,0.0*
1,1,.1,-.475,-.216506*
20,1,.1,-.475,-.216506,-.510697,-.191511,0.0*
1,1,.1,-.510697,-.191511*
20,1,.1,-.510697,-.191511,-.541511,-.160697,0.0*
1,1,.1,-.541511,-.160697*
20,1,.1,-.541511,-.160697,-.566506,-.125,0.0*
1,1,.1,-.566506,-.125*
20,1,.1,-.566506,-.125,-.584923,-.085505,0.0*
1,1,.1,-.584923,-.085505*
20,1,.1,-.584923,-.085505,-.596202,-.043412,0.0*
1,1,.1,-.596202,-.043412*
20,1,.1,-.596202,-.043412,-.6,0.0,0.0*
1,1,.1,-.6,0.0*
20,1,.1,-.6,0.0,-.596202,.043412,0.0*
1,1,.1,-.596202,.043412*
20,1,.1,-.596202,.043412,-.584923,.085505,0.0*
1,1,.1,-.584923,.085505*
20,1,.1,-.584923,.085505,-.566506,.125,0.0*
1,1,.1,-.566506,.125*
20,1,.1,-.566506,.125,-.541511,.160697,0.0*
1,1,.1,-.541511,.160697*
20,1,.1,-.541511,.160697,-.510697,.191511,0.0*
1,1,.1,-.510697,.191511*
20,1,.1,-.510697,.191511,-.475,.216506,0.0*
1,1,.1,-.475,.216506*
20,1,.1,-.475,.216506,-.435505,.234923,0.0*
1,1,.1,-.435505,.234923*
20,1,.1,-.435505,.234923,-.393412,.246202,0.0*
1,1,.1,-.393412,.246202*
20,1,.1,-.393412,.246202,-.35,.25,0.0*
1,1,.1,-.35,.25*
%
%ADD14MACRO14*%
%AMMACRO13*
1,1,.1,.3556,0.0*
20,1,.1,.3556,0.0,-.3556,0.0,0.0*
1,1,.1,-.3556,0.0*
1,1,.1,0.0,.3556*
20,1,.1,0.0,.3556,0.0,-.3556,0.0*
1,1,.1,0.0,-.3556*
%
%ADD13MACRO13*%
%AMMACRO12*
1,1,.1,.635,0.0*
20,1,.1,.635,0.0,.625353,-.110267,0.0*
1,1,.1,.625353,-.110267*
20,1,.1,.625353,-.110267,.596705,-.217183,0.0*
1,1,.1,.596705,-.217183*
20,1,.1,.596705,-.217183,.549926,-.3175,0.0*
1,1,.1,.549926,-.3175*
20,1,.1,.549926,-.3175,.486438,-.40817,0.0*
1,1,.1,.486438,-.40817*
20,1,.1,.486438,-.40817,.40817,-.486438,0.0*
1,1,.1,.40817,-.486438*
20,1,.1,.40817,-.486438,.3175,-.549926,0.0*
1,1,.1,.3175,-.549926*
20,1,.1,.3175,-.549926,.217183,-.596705,0.0*
1,1,.1,.217183,-.596705*
20,1,.1,.217183,-.596705,.110267,-.625353,0.0*
1,1,.1,.110267,-.625353*
20,1,.1,.110267,-.625353,0.0,-.635,0.0*
1,1,.1,0.0,-.635*
20,1,.1,0.0,-.635,-.110267,-.625353,0.0*
1,1,.1,-.110267,-.625353*
20,1,.1,-.110267,-.625353,-.217183,-.596705,0.0*
1,1,.1,-.217183,-.596705*
20,1,.1,-.217183,-.596705,-.3175,-.549926,0.0*
1,1,.1,-.3175,-.549926*
20,1,.1,-.3175,-.549926,-.40817,-.486438,0.0*
1,1,.1,-.40817,-.486438*
20,1,.1,-.40817,-.486438,-.486438,-.40817,0.0*
1,1,.1,-.486438,-.40817*
20,1,.1,-.486438,-.40817,-.549926,-.3175,0.0*
1,1,.1,-.549926,-.3175*
20,1,.1,-.549926,-.3175,-.596705,-.217183,0.0*
1,1,.1,-.596705,-.217183*
20,1,.1,-.596705,-.217183,-.625353,-.110267,0.0*
1,1,.1,-.625353,-.110267*
20,1,.1,-.625353,-.110267,-.635,0.0,0.0*
1,1,.1,-.635,0.0*
20,1,.1,-.635,0.0,-.625353,.110267,0.0*
1,1,.1,-.625353,.110267*
20,1,.1,-.625353,.110267,-.596705,.217183,0.0*
1,1,.1,-.596705,.217183*
20,1,.1,-.596705,.217183,-.549926,.3175,0.0*
1,1,.1,-.549926,.3175*
20,1,.1,-.549926,.3175,-.486438,.40817,0.0*
1,1,.1,-.486438,.40817*
20,1,.1,-.486438,.40817,-.40817,.486438,0.0*
1,1,.1,-.40817,.486438*
20,1,.1,-.40817,.486438,-.3175,.549926,0.0*
1,1,.1,-.3175,.549926*
20,1,.1,-.3175,.549926,-.217183,.596705,0.0*
1,1,.1,-.217183,.596705*
20,1,.1,-.217183,.596705,-.110267,.625353,0.0*
1,1,.1,-.110267,.625353*
20,1,.1,-.110267,.625353,0.0,.635,0.0*
1,1,.1,0.0,.635*
20,1,.1,0.0,.635,.110267,.625353,0.0*
1,1,.1,.110267,.625353*
20,1,.1,.110267,.625353,.217183,.596705,0.0*
1,1,.1,.217183,.596705*
20,1,.1,.217183,.596705,.3175,.549926,0.0*
1,1,.1,.3175,.549926*
20,1,.1,.3175,.549926,.40817,.486438,0.0*
1,1,.1,.40817,.486438*
20,1,.1,.40817,.486438,.486438,.40817,0.0*
1,1,.1,.486438,.40817*
20,1,.1,.486438,.40817,.549926,.3175,0.0*
1,1,.1,.549926,.3175*
20,1,.1,.549926,.3175,.596705,.217183,0.0*
1,1,.1,.596705,.217183*
20,1,.1,.596705,.217183,.625353,.110267,0.0*
1,1,.1,.625353,.110267*
20,1,.1,.625353,.110267,.635,0.0,0.0*
1,1,.1,.635,0.0*
1,1,.1,.3175,0.0*
20,1,.1,.3175,0.0,-.3175,0.0,0.0*
1,1,.1,-.3175,0.0*
1,1,.1,0.0,.3175*
20,1,.1,0.0,.3175,0.0,-.3175,0.0*
1,1,.1,0.0,-.3175*
%
%ADD12MACRO12*%
%AMMACRO11*
1,1,.1,.635,0.0*
20,1,.1,.635,0.0,.3175,.549926,0.0*
1,1,.1,.3175,.549926*
20,1,.1,.3175,.549926,-.3175,.549926,0.0*
1,1,.1,-.3175,.549926*
20,1,.1,-.3175,.549926,-.635,0.0,0.0*
1,1,.1,-.635,0.0*
20,1,.1,-.635,0.0,-.3175,-.549926,0.0*
1,1,.1,-.3175,-.549926*
20,1,.1,-.3175,-.549926,.3175,-.549926,0.0*
1,1,.1,.3175,-.549926*
20,1,.1,.3175,-.549926,.635,0.0,0.0*
1,1,.1,.635,0.0*
%
%ADD11MACRO11*%
%AMMACRO10*
1,1,.1,-.6668,-.9525*
20,1,.1,-.6668,-.9525,.6668,.9525,0.0*
1,1,.1,.6668,.9525*
1,1,.1,-.6668,.9525*
20,1,.1,-.6668,.9525,.6668,-.9525,0.0*
1,1,.1,.6668,-.9525*
%
%ADD10MACRO10*%
%ADD15C,.1*%
G75*
%LPD*%
G75*
G54D10*
X254000Y254000D03*
Y6746000D03*
X6746000Y254000D03*
Y6746000D03*
X8634730Y429500D03*
G54D11*
X254000Y1143000D03*
Y1397000D03*
X317500Y5080000D03*
Y4826000D03*
X6731000Y1016000D03*
Y1270000D03*
X6794500Y2857500D03*
Y2603500D03*
X8634730Y1064500D03*
G54D12*
X446000Y2221000D03*
X254000Y3683000D03*
X127000Y3873500D03*
X1016000Y2540000D03*
X1079500Y3492500D03*
X952500Y3619500D03*
Y3873500D03*
X1079500Y3746500D03*
Y4000500D03*
Y4254500D03*
X952500Y4127500D03*
X1651000Y3238500D03*
X1397000D03*
X1270000Y3365500D03*
X1143000Y3111500D03*
X1524000Y3365500D03*
X1397000Y4508500D03*
X1270000Y4381500D03*
X1524000D03*
X1651000Y4508500D03*
X1778000Y1968500D03*
Y3365500D03*
X2159000Y3492500D03*
X2032000Y3365500D03*
X1905000Y3238500D03*
X2286000Y3619500D03*
X2159000Y3746500D03*
X2286000Y3873500D03*
X2159000Y4000500D03*
X1905000Y4508500D03*
X1778000Y4381500D03*
X2032000D03*
X2286000Y4127500D03*
X2159000Y4254500D03*
X2413000Y889000D03*
Y1079500D03*
Y698500D03*
Y1333500D03*
Y2286000D03*
Y1714500D03*
Y2032000D03*
Y2857500D03*
X2794000Y2413000D03*
X2413000Y2667000D03*
Y3111500D03*
Y3302000D03*
X2794000Y3619500D03*
X2540000Y4381500D03*
X2413000Y4254500D03*
X2418000Y4503500D03*
X2540000Y4635500D03*
X2413000Y4762500D03*
X2984500Y2413000D03*
X3175000D03*
Y3619500D03*
X3003500Y4019500D03*
X2984500Y3619500D03*
X3429000Y4635500D03*
Y4381500D03*
X3003500Y5061000D03*
X3556000Y889000D03*
Y698500D03*
Y1143000D03*
Y1333500D03*
Y1651000D03*
Y2286000D03*
Y2032000D03*
Y2730500D03*
Y3111500D03*
Y3302000D03*
Y2921000D03*
Y4254500D03*
X3551000Y4503500D03*
X3556000Y4762500D03*
X4254500Y2476500D03*
X4635500Y3429000D03*
X4699000Y3302000D03*
X4592400Y4655900D03*
X4701700Y4574700D03*
X4191000Y4127500D03*
X4394200Y5194300D03*
X4826000Y3238500D03*
X5207000Y3873500D03*
X4762500Y4064000D03*
X5080000Y5334000D03*
X5334000Y3810000D03*
X5900400Y3677900D03*
X5588000Y3556000D03*
X5334000Y4000500D03*
X5778500Y3556000D03*
X5448300Y5194300D03*
X6413500Y4699000D03*
X6286500Y4572000D03*
X8634730Y2334500D03*
G54D13*
X3238500Y5970000D03*
Y6730000D03*
X5461000Y6413500D03*
X5715000D03*
X5461000Y6667500D03*
X5715000D03*
X5969000Y6413500D03*
Y6667500D03*
X8634730Y1699500D03*
G54D14*
Y5382500D03*
G54D15*
G01X0Y0D02*
Y7000000D01*
X7000000D01*
Y0D01*
X0D01*
G01X7493000Y112000D02*
Y4572000D01*
X19776440D01*
Y112000D01*
X7493000D01*
G01Y747000D02*
X19776440D01*
G01X7493000Y1382000D02*
X19776440D01*
G01X7493000Y2017000D02*
X19776440D01*
G01X7493000Y2652000D02*
X19776440D01*
G01X7493000Y3287000D02*
X19776440D01*
G01X7493000Y3922000D02*
X19776440D01*
G01X7493000Y5065000D02*
Y7620000D01*
X19776440D01*
Y5065000D01*
X7493000D01*
G01Y5700000D02*
X19776440D01*
G01X7493000Y6335000D02*
X19776440D01*
G01X7493000Y6970000D02*
X19776440D01*
G01X7772520Y2810750D02*
Y3128250D01*
X7922140D01*
G01X7867010Y2974800D02*
X7772520D01*
G01X8115050Y3128250D02*
X8209530D01*
G01X8162290D02*
Y2810750D01*
G01X8115050D02*
X8209530D01*
G01X8500870Y2969500D02*
X8579620D01*
Y2874250D01*
X8555990Y2842490D01*
X8528430Y2821330D01*
X8489060Y2810750D01*
X8449690Y2821330D01*
X8422130Y2842490D01*
X8398510Y2874250D01*
X8382760Y2911290D01*
X8374880Y2953620D01*
Y2990670D01*
X8382760Y3022410D01*
X8398510Y3059460D01*
X8422130Y3091210D01*
X8445750Y3112370D01*
X8477250Y3128250D01*
X8504810D01*
X8536300Y3117670D01*
X8559930Y3096500D01*
G01X8705600Y3128250D02*
Y2900710D01*
X8721340Y2853070D01*
X8752840Y2821330D01*
X8792210Y2810750D01*
X8831580Y2821330D01*
X8863080Y2853070D01*
X8878820Y2900710D01*
Y3128250D01*
G01X9028430Y2810750D02*
Y3128250D01*
X9126850D01*
X9158350Y3112370D01*
X9178040Y3091210D01*
X9185910Y3048870D01*
X9178040Y3006540D01*
X9154410Y2980090D01*
X9126850Y2964200D01*
X9028430D01*
G01X9126850D02*
X9185910Y2810750D01*
G01X9500870D02*
X9343390D01*
Y3128250D01*
X9500870D01*
G01X9437880Y2974800D02*
X9343390D01*
G01X7772520Y5858750D02*
Y6176250D01*
X7922140D01*
G01X7867010Y6022800D02*
X7772520D01*
G01X8115050Y6176250D02*
X8209530D01*
G01X8162290D02*
Y5858750D01*
G01X8115050D02*
X8209530D01*
G01X8500870Y6017500D02*
X8579620D01*
Y5922250D01*
X8555990Y5890490D01*
X8528430Y5869330D01*
X8489060Y5858750D01*
X8449690Y5869330D01*
X8422130Y5890490D01*
X8398510Y5922250D01*
X8382760Y5959290D01*
X8374880Y6001620D01*
Y6038670D01*
X8382760Y6070410D01*
X8398510Y6107460D01*
X8422130Y6139210D01*
X8445750Y6160370D01*
X8477250Y6176250D01*
X8504810D01*
X8536300Y6165670D01*
X8559930Y6144500D01*
G01X8705600Y6176250D02*
Y5948710D01*
X8721340Y5901070D01*
X8752840Y5869330D01*
X8792210Y5858750D01*
X8831580Y5869330D01*
X8863080Y5901070D01*
X8878820Y5948710D01*
Y6176250D01*
G01X9028430Y5858750D02*
Y6176250D01*
X9126850D01*
X9158350Y6160370D01*
X9178040Y6139210D01*
X9185910Y6096870D01*
X9178040Y6054540D01*
X9154410Y6028090D01*
X9126850Y6012200D01*
X9028430D01*
G01X9126850D02*
X9185910Y5858750D01*
G01X9500870D02*
X9343390D01*
Y6176250D01*
X9500870D01*
G01X9437880Y6022800D02*
X9343390D01*
G01X9284330Y3445750D02*
X9382760Y3763250D01*
X9481190Y3445750D01*
G01X9445750Y3556870D02*
X9319760D01*
G01X9618980Y3763250D02*
Y3445750D01*
X9776460D01*
G01X9933940Y3763250D02*
Y3445750D01*
X10091420D01*
G01X10555990Y3763250D02*
Y3535710D01*
X10571730Y3488070D01*
X10603230Y3456330D01*
X10642600Y3445750D01*
X10681970Y3456330D01*
X10713470Y3488070D01*
X10729210Y3535710D01*
Y3763250D01*
G01X10867010Y3445750D02*
Y3763250D01*
X11048110Y3445750D01*
Y3763250D01*
G01X11225280D02*
X11319760D01*
G01X11272520D02*
Y3445750D01*
G01X11225280D02*
X11319760D01*
G01X11587480Y3763250D02*
Y3445750D01*
G01X11496930Y3763250D02*
X11678030D01*
G01X11819760Y3488070D02*
X11851260Y3461620D01*
X11886690Y3445750D01*
X11918190D01*
X11949680Y3461620D01*
X11973310Y3488070D01*
X11985120Y3525130D01*
X11977250Y3562160D01*
X11957560Y3593910D01*
X11922120Y3615090D01*
X11874880Y3625670D01*
X11847320Y3646830D01*
X11835510Y3683870D01*
X11843390Y3720920D01*
X11863070Y3747370D01*
X11890630Y3763250D01*
X11918190D01*
X11945750Y3752670D01*
X11969370Y3726210D01*
G01X12433930Y3445750D02*
X12532360Y3763250D01*
X12630790Y3445750D01*
G01X12595350Y3556870D02*
X12469360D01*
G01X12768580Y3445750D02*
Y3763250D01*
X12867000D01*
X12898500Y3747370D01*
X12918190Y3726210D01*
X12926060Y3683870D01*
X12918190Y3641540D01*
X12894560Y3615090D01*
X12867000Y3599200D01*
X12768580D01*
G01X12867000D02*
X12926060Y3445750D01*
G01X13241020D02*
X13083540D01*
Y3763250D01*
X13241020D01*
G01X13178030Y3609800D02*
X13083540D01*
G01X13744960Y3763250D02*
X13839440D01*
G01X13792200D02*
Y3445750D01*
G01X13744960D02*
X13839440D01*
G01X14016610D02*
Y3763250D01*
X14197710Y3445750D01*
Y3763250D01*
G01X14634710Y3445750D02*
Y3763250D01*
X14737080Y3498670D01*
X14839450Y3763250D01*
Y3445750D01*
G01X15004800Y3763250D02*
X15099280D01*
G01X15052040D02*
Y3445750D01*
G01X15004800D02*
X15099280D01*
G01X15288260Y3763250D02*
Y3445750D01*
X15445740D01*
G01X15603220Y3763250D02*
Y3445750D01*
X15760700D01*
G01X15949680Y3763250D02*
X16044160D01*
G01X15996920D02*
Y3445750D01*
G01X15949680D02*
X16044160D01*
G01X16209510D02*
Y3763250D01*
X16311880Y3498670D01*
X16414250Y3763250D01*
Y3445750D01*
G01X16705580D02*
X16548100D01*
Y3763250D01*
X16705580D01*
G01X16642590Y3609800D02*
X16548100D01*
G01X16941800Y3763250D02*
Y3445750D01*
G01X16851250Y3763250D02*
X17032350D01*
G01X17335500Y3445750D02*
X17178020D01*
Y3763250D01*
X17335500D01*
G01X17272510Y3609800D02*
X17178020D01*
G01X17492980Y3445750D02*
Y3763250D01*
X17591400D01*
X17622900Y3747370D01*
X17642590Y3726210D01*
X17650460Y3683870D01*
X17642590Y3641540D01*
X17618960Y3615090D01*
X17591400Y3599200D01*
X17492980D01*
G01X17591400D02*
X17650460Y3445750D01*
G01X17804000Y3488070D02*
X17835500Y3461620D01*
X17870930Y3445750D01*
X17902430D01*
X17933920Y3461620D01*
X17957550Y3488070D01*
X17969360Y3525130D01*
X17961490Y3562160D01*
X17941800Y3593910D01*
X17906360Y3615090D01*
X17859120Y3625670D01*
X17831560Y3646830D01*
X17819750Y3683870D01*
X17827630Y3720920D01*
X17847310Y3747370D01*
X17874870Y3763250D01*
X17902430D01*
X17929990Y3752670D01*
X17953610Y3726210D01*
G01X9284330Y6493750D02*
X9382760Y6811250D01*
X9481190Y6493750D01*
G01X9445750Y6604870D02*
X9319760D01*
G01X9618980Y6811250D02*
Y6493750D01*
X9776460D01*
G01X9933940Y6811250D02*
Y6493750D01*
X10091420D01*
G01X10555990Y6811250D02*
Y6583710D01*
X10571730Y6536070D01*
X10603230Y6504330D01*
X10642600Y6493750D01*
X10681970Y6504330D01*
X10713470Y6536070D01*
X10729210Y6583710D01*
Y6811250D01*
G01X10867010Y6493750D02*
Y6811250D01*
X11048110Y6493750D01*
Y6811250D01*
G01X11225280D02*
X11319760D01*
G01X11272520D02*
Y6493750D01*
G01X11225280D02*
X11319760D01*
G01X11587480Y6811250D02*
Y6493750D01*
G01X11496930Y6811250D02*
X11678030D01*
G01X11819760Y6536070D02*
X11851260Y6509620D01*
X11886690Y6493750D01*
X11918190D01*
X11949680Y6509620D01*
X11973310Y6536070D01*
X11985120Y6573130D01*
X11977250Y6610160D01*
X11957560Y6641910D01*
X11922120Y6663090D01*
X11874880Y6673670D01*
X11847320Y6694830D01*
X11835510Y6731870D01*
X11843390Y6768920D01*
X11863070Y6795370D01*
X11890630Y6811250D01*
X11918190D01*
X11945750Y6800670D01*
X11969370Y6774210D01*
G01X12433930Y6493750D02*
X12532360Y6811250D01*
X12630790Y6493750D01*
G01X12595350Y6604870D02*
X12469360D01*
G01X12768580Y6493750D02*
Y6811250D01*
X12867000D01*
X12898500Y6795370D01*
X12918190Y6774210D01*
X12926060Y6731870D01*
X12918190Y6689540D01*
X12894560Y6663090D01*
X12867000Y6647200D01*
X12768580D01*
G01X12867000D02*
X12926060Y6493750D01*
G01X13241020D02*
X13083540D01*
Y6811250D01*
X13241020D01*
G01X13178030Y6657800D02*
X13083540D01*
G01X13744960Y6811250D02*
X13839440D01*
G01X13792200D02*
Y6493750D01*
G01X13744960D02*
X13839440D01*
G01X14016610D02*
Y6811250D01*
X14197710Y6493750D01*
Y6811250D01*
G01X14634710Y6493750D02*
Y6811250D01*
X14737080Y6546670D01*
X14839450Y6811250D01*
Y6493750D01*
G01X15004800Y6811250D02*
X15099280D01*
G01X15052040D02*
Y6493750D01*
G01X15004800D02*
X15099280D01*
G01X15288260Y6811250D02*
Y6493750D01*
X15445740D01*
G01X15603220Y6811250D02*
Y6493750D01*
X15760700D01*
G01X15949680Y6811250D02*
X16044160D01*
G01X15996920D02*
Y6493750D01*
G01X15949680D02*
X16044160D01*
G01X16209510D02*
Y6811250D01*
X16311880Y6546670D01*
X16414250Y6811250D01*
Y6493750D01*
G01X16705580D02*
X16548100D01*
Y6811250D01*
X16705580D01*
G01X16642590Y6657800D02*
X16548100D01*
G01X16941800Y6811250D02*
Y6493750D01*
G01X16851250Y6811250D02*
X17032350D01*
G01X17335500Y6493750D02*
X17178020D01*
Y6811250D01*
X17335500D01*
G01X17272510Y6657800D02*
X17178020D01*
G01X17492980Y6493750D02*
Y6811250D01*
X17591400D01*
X17622900Y6795370D01*
X17642590Y6774210D01*
X17650460Y6731870D01*
X17642590Y6689540D01*
X17618960Y6663090D01*
X17591400Y6647200D01*
X17492980D01*
G01X17591400D02*
X17650460Y6493750D01*
G01X17804000Y6536070D02*
X17835500Y6509620D01*
X17870930Y6493750D01*
X17902430D01*
X17933920Y6509620D01*
X17957550Y6536070D01*
X17969360Y6573130D01*
X17961490Y6610160D01*
X17941800Y6641910D01*
X17906360Y6663090D01*
X17859120Y6673670D01*
X17831560Y6694830D01*
X17819750Y6731870D01*
X17827630Y6768920D01*
X17847310Y6795370D01*
X17874870Y6811250D01*
X17902430D01*
X17929990Y6800670D01*
X17953610Y6774210D01*
G01X9776460Y3287000D02*
Y112000D01*
G01X9611110Y4095750D02*
Y4413250D01*
X9689840D01*
X9721340Y4397370D01*
X9744960Y4376210D01*
X9764650Y4344460D01*
X9780400Y4307410D01*
X9784330Y4254500D01*
X9780400Y4201580D01*
X9764650Y4164540D01*
X9744960Y4132780D01*
X9721340Y4111620D01*
X9689840Y4095750D01*
X9611110D01*
G01X9933940D02*
Y4413250D01*
X10032360D01*
X10063860Y4397370D01*
X10083550Y4376210D01*
X10091420Y4333870D01*
X10083550Y4291540D01*
X10059920Y4265090D01*
X10032360Y4249200D01*
X9933940D01*
G01X10032360D02*
X10091420Y4095750D01*
G01X10280400Y4413250D02*
X10374880D01*
G01X10327640D02*
Y4095750D01*
G01X10280400D02*
X10374880D01*
G01X10563860Y4413250D02*
Y4095750D01*
X10721340D01*
G01X10878820Y4413250D02*
Y4095750D01*
X11036300D01*
G01X11674090Y4386790D02*
X11650470Y4402670D01*
X11622920Y4413250D01*
X11591420D01*
X11555980Y4397370D01*
X11528430Y4370920D01*
X11508740Y4339160D01*
X11492990Y4286250D01*
X11489050Y4238620D01*
X11496930Y4191000D01*
X11508740Y4159250D01*
X11532360Y4127490D01*
X11559920Y4106330D01*
X11587480Y4095750D01*
X11615040D01*
X11642600Y4106330D01*
X11666220Y4122200D01*
X11685910Y4143360D01*
G01X11819760Y4095750D02*
Y4413250D01*
G01X11985120D02*
Y4095750D01*
G01Y4254500D02*
X11819760D01*
G01X12118970Y4095750D02*
X12217400Y4413250D01*
X12315830Y4095750D01*
G01X12280390Y4206870D02*
X12154400D01*
G01X12453620Y4095750D02*
Y4413250D01*
X12552040D01*
X12583540Y4397370D01*
X12603230Y4376210D01*
X12611100Y4333870D01*
X12603230Y4291540D01*
X12579600Y4265090D01*
X12552040Y4249200D01*
X12453620D01*
G01X12552040D02*
X12611100Y4095750D01*
G01X12847320Y4413250D02*
Y4095750D01*
G01X12756770Y4413250D02*
X12937870D01*
G01X13162280Y4085170D02*
X13154400Y4090460D01*
Y4101040D01*
X13162280Y4106330D01*
X13170160Y4101040D01*
Y4090460D01*
X13162280Y4085170D01*
G01Y4228030D02*
X13154400Y4233330D01*
Y4243910D01*
X13162280Y4249200D01*
X13170160Y4243910D01*
Y4233330D01*
X13162280Y4228030D01*
G01X13792200Y4413250D02*
Y4095750D01*
G01X13701650Y4413250D02*
X13882750D01*
G01X14107160Y4095750D02*
X14075660Y4101040D01*
X14048110Y4122200D01*
X14024480Y4153960D01*
X14008730Y4191000D01*
X14000860Y4233330D01*
Y4275670D01*
X14008730Y4318000D01*
X14024480Y4355040D01*
X14048110Y4386790D01*
X14075660Y4407960D01*
X14107160Y4413250D01*
X14138650Y4407960D01*
X14166210Y4386790D01*
X14189840Y4355040D01*
X14205590Y4318000D01*
X14213460Y4275670D01*
Y4233330D01*
X14205590Y4191000D01*
X14189840Y4153960D01*
X14166210Y4122200D01*
X14138650Y4101040D01*
X14107160Y4095750D01*
G01X14343380D02*
Y4413250D01*
X14437870D01*
X14469360Y4397370D01*
X14492990Y4360330D01*
X14500860Y4318000D01*
X14492990Y4275670D01*
X14473300Y4243910D01*
X14437870Y4228030D01*
X14343380D01*
G01X15052040Y4413250D02*
Y4095750D01*
G01X14996920Y4307410D02*
X15107160D01*
G01X15367000Y4095750D02*
X15343380Y4101040D01*
X15319760Y4122200D01*
X15304000Y4159250D01*
X15296130Y4201580D01*
X15304000Y4243910D01*
X15319760Y4280960D01*
X15343380Y4302120D01*
X15367000Y4307410D01*
X15390620Y4302120D01*
X15414240Y4280960D01*
X15429990Y4243910D01*
X15433930Y4201580D01*
X15429990Y4159250D01*
X15414240Y4122200D01*
X15390620Y4101040D01*
X15367000Y4095750D01*
G01X16028410Y4265090D02*
X16044160Y4280960D01*
X16055970Y4307410D01*
X16063850Y4344460D01*
X16055970Y4376210D01*
X16040230Y4397370D01*
X16012670Y4413250D01*
X15906370D01*
Y4095750D01*
X16036290D01*
X16063850Y4116910D01*
X16079600Y4148670D01*
X16087470Y4185710D01*
X16079600Y4222740D01*
X16055970Y4254500D01*
X16028410Y4265090D01*
X15906370D01*
G01X16311880Y4095750D02*
X16280380Y4101040D01*
X16252830Y4122200D01*
X16229200Y4153960D01*
X16213450Y4191000D01*
X16205580Y4233330D01*
Y4275670D01*
X16213450Y4318000D01*
X16229200Y4355040D01*
X16252830Y4386790D01*
X16280380Y4407960D01*
X16311880Y4413250D01*
X16343370Y4407960D01*
X16370930Y4386790D01*
X16394560Y4355040D01*
X16410310Y4318000D01*
X16418180Y4275670D01*
Y4233330D01*
X16410310Y4191000D01*
X16394560Y4153960D01*
X16370930Y4122200D01*
X16343370Y4101040D01*
X16311880Y4095750D01*
G01X16626840Y4413250D02*
Y4095750D01*
G01X16536290Y4413250D02*
X16717390D01*
G01X16941800D02*
Y4095750D01*
G01X16851250Y4413250D02*
X17032350D01*
G01X17256760Y4095750D02*
X17225260Y4101040D01*
X17197710Y4122200D01*
X17174080Y4153960D01*
X17158330Y4191000D01*
X17150460Y4233330D01*
Y4275670D01*
X17158330Y4318000D01*
X17174080Y4355040D01*
X17197710Y4386790D01*
X17225260Y4407960D01*
X17256760Y4413250D01*
X17288250Y4407960D01*
X17315810Y4386790D01*
X17339440Y4355040D01*
X17355190Y4318000D01*
X17363060Y4275670D01*
Y4233330D01*
X17355190Y4191000D01*
X17339440Y4153960D01*
X17315810Y4122200D01*
X17288250Y4101040D01*
X17256760Y4095750D01*
G01X17469350D02*
Y4413250D01*
X17571720Y4148670D01*
X17674090Y4413250D01*
Y4095750D01*
G01X9776460Y6335000D02*
Y5065000D01*
G01X10083550Y7143750D02*
Y7461250D01*
X10162280D01*
X10193780Y7445370D01*
X10217400Y7424210D01*
X10237090Y7392460D01*
X10252840Y7355410D01*
X10256770Y7302500D01*
X10252840Y7249580D01*
X10237090Y7212540D01*
X10217400Y7180780D01*
X10193780Y7159620D01*
X10162280Y7143750D01*
X10083550D01*
G01X10406380D02*
Y7461250D01*
X10504800D01*
X10536300Y7445370D01*
X10555990Y7424210D01*
X10563860Y7381870D01*
X10555990Y7339540D01*
X10532360Y7313090D01*
X10504800Y7297200D01*
X10406380D01*
G01X10504800D02*
X10563860Y7143750D01*
G01X10752840Y7461250D02*
X10847320D01*
G01X10800080D02*
Y7143750D01*
G01X10752840D02*
X10847320D01*
G01X11036300Y7461250D02*
Y7143750D01*
X11193780D01*
G01X11351260Y7461250D02*
Y7143750D01*
X11508740D01*
G01X12146530Y7434790D02*
X12122910Y7450670D01*
X12095360Y7461250D01*
X12063860D01*
X12028420Y7445370D01*
X12000870Y7418920D01*
X11981180Y7387160D01*
X11965430Y7334250D01*
X11961490Y7286620D01*
X11969370Y7239000D01*
X11981180Y7207250D01*
X12004800Y7175490D01*
X12032360Y7154330D01*
X12059920Y7143750D01*
X12087480D01*
X12115040Y7154330D01*
X12138660Y7170200D01*
X12158350Y7191360D01*
G01X12292200Y7143750D02*
Y7461250D01*
G01X12457560D02*
Y7143750D01*
G01Y7302500D02*
X12292200D01*
G01X12591410Y7143750D02*
X12689840Y7461250D01*
X12788270Y7143750D01*
G01X12752830Y7254870D02*
X12626840D01*
G01X12926060Y7143750D02*
Y7461250D01*
X13024480D01*
X13055980Y7445370D01*
X13075670Y7424210D01*
X13083540Y7381870D01*
X13075670Y7339540D01*
X13052040Y7313090D01*
X13024480Y7297200D01*
X12926060D01*
G01X13024480D02*
X13083540Y7143750D01*
G01X13319760Y7461250D02*
Y7143750D01*
G01X13229210Y7461250D02*
X13410310D01*
G01X13634720Y7133170D02*
X13626840Y7138460D01*
Y7149040D01*
X13634720Y7154330D01*
X13642600Y7149040D01*
Y7138460D01*
X13634720Y7133170D01*
G01Y7276030D02*
X13626840Y7281330D01*
Y7291910D01*
X13634720Y7297200D01*
X13642600Y7291910D01*
Y7281330D01*
X13634720Y7276030D01*
G01X14264640Y7461250D02*
Y7143750D01*
G01X14174090Y7461250D02*
X14355190D01*
G01X14579600Y7143750D02*
X14548100Y7149040D01*
X14520550Y7170200D01*
X14496920Y7201960D01*
X14481170Y7239000D01*
X14473300Y7281330D01*
Y7323670D01*
X14481170Y7366000D01*
X14496920Y7403040D01*
X14520550Y7434790D01*
X14548100Y7455960D01*
X14579600Y7461250D01*
X14611090Y7455960D01*
X14638650Y7434790D01*
X14662280Y7403040D01*
X14678030Y7366000D01*
X14685900Y7323670D01*
Y7281330D01*
X14678030Y7239000D01*
X14662280Y7201960D01*
X14638650Y7170200D01*
X14611090Y7149040D01*
X14579600Y7143750D01*
G01X14815820D02*
Y7461250D01*
X14910310D01*
X14941800Y7445370D01*
X14965430Y7408330D01*
X14973300Y7366000D01*
X14965430Y7323670D01*
X14945740Y7291910D01*
X14910310Y7276030D01*
X14815820D01*
G01X15524480Y7461250D02*
Y7143750D01*
G01X15469360Y7355410D02*
X15579600D01*
G01X15839440Y7143750D02*
X15815820Y7149040D01*
X15792200Y7170200D01*
X15776440Y7207250D01*
X15768570Y7249580D01*
X15776440Y7291910D01*
X15792200Y7328960D01*
X15815820Y7350120D01*
X15839440Y7355410D01*
X15863060Y7350120D01*
X15886680Y7328960D01*
X15902430Y7291910D01*
X15906370Y7249580D01*
X15902430Y7207250D01*
X15886680Y7170200D01*
X15863060Y7149040D01*
X15839440Y7143750D01*
G01X16469360Y7461250D02*
Y7143750D01*
G01X16378810Y7461250D02*
X16559910D01*
G01X16784320Y7143750D02*
X16752820Y7149040D01*
X16725270Y7170200D01*
X16701640Y7201960D01*
X16685890Y7239000D01*
X16678020Y7281330D01*
Y7323670D01*
X16685890Y7366000D01*
X16701640Y7403040D01*
X16725270Y7434790D01*
X16752820Y7455960D01*
X16784320Y7461250D01*
X16815810Y7455960D01*
X16843370Y7434790D01*
X16867000Y7403040D01*
X16882750Y7366000D01*
X16890620Y7323670D01*
Y7281330D01*
X16882750Y7239000D01*
X16867000Y7201960D01*
X16843370Y7170200D01*
X16815810Y7149040D01*
X16784320Y7143750D01*
G01X17020540D02*
Y7461250D01*
X17115030D01*
X17146520Y7445370D01*
X17170150Y7408330D01*
X17178020Y7366000D01*
X17170150Y7323670D01*
X17150460Y7291910D01*
X17115030Y7276030D01*
X17020540D01*
G01X11390630Y1223250D02*
X11359130Y1212670D01*
X11335510Y1186210D01*
X11319760Y1154460D01*
X11307950Y1112120D01*
X11304020Y1064500D01*
X11307950Y1016870D01*
X11319760Y974540D01*
X11335510Y942780D01*
X11359130Y916330D01*
X11390630Y905750D01*
X11422120Y916330D01*
X11445750Y942780D01*
X11461500Y974540D01*
X11473310Y1016870D01*
X11477240Y1064500D01*
X11473310Y1112120D01*
X11461500Y1154460D01*
X11445750Y1186210D01*
X11422120Y1212670D01*
X11390630Y1223250D01*
G01X11705590Y895170D02*
X11697710Y900460D01*
Y911040D01*
X11705590Y916330D01*
X11713470Y911040D01*
Y900460D01*
X11705590Y895170D01*
G01X11953620Y942780D02*
X11981180Y916330D01*
X12012670Y905750D01*
X12044170Y916330D01*
X12071730Y948070D01*
X12091420Y995710D01*
X12099290Y1043330D01*
Y1101540D01*
X12091420Y1149160D01*
X12071730Y1191500D01*
X12048110Y1212670D01*
X12020550Y1223250D01*
X11989050Y1212670D01*
X11965430Y1191500D01*
X11949680Y1159750D01*
X11941810Y1117410D01*
X11949680Y1080380D01*
X11969370Y1043330D01*
X11992990Y1022160D01*
X12020550Y1016870D01*
X12052040Y1027450D01*
X12075670Y1053910D01*
X12099290Y1101540D01*
G01X12335510Y905750D02*
Y1223250D01*
X12288270Y1159750D01*
G01Y905750D02*
X12382750D01*
G01X12697710D02*
Y1223250D01*
X12552040Y995710D01*
X12748900D01*
G01X13012670Y905750D02*
Y1223250D01*
X12867000Y995710D01*
X13063860D01*
G01X11390630Y1858250D02*
X11359130Y1847670D01*
X11335510Y1821210D01*
X11319760Y1789460D01*
X11307950Y1747120D01*
X11304020Y1699500D01*
X11307950Y1651870D01*
X11319760Y1609540D01*
X11335510Y1577780D01*
X11359130Y1551330D01*
X11390630Y1540750D01*
X11422120Y1551330D01*
X11445750Y1577780D01*
X11461500Y1609540D01*
X11473310Y1651870D01*
X11477240Y1699500D01*
X11473310Y1747120D01*
X11461500Y1789460D01*
X11445750Y1821210D01*
X11422120Y1847670D01*
X11390630Y1858250D01*
G01X11705590Y1530170D02*
X11697710Y1535460D01*
Y1546040D01*
X11705590Y1551330D01*
X11713470Y1546040D01*
Y1535460D01*
X11705590Y1530170D01*
G01X12012670Y1540750D02*
X12020550Y1609540D01*
X12032360Y1667740D01*
X12048110Y1720670D01*
X12067790Y1778870D01*
X12099290Y1858250D01*
X11941810D01*
G01X12335510Y1540750D02*
Y1858250D01*
X12288270Y1794750D01*
G01Y1540750D02*
X12382750D01*
G01X12650470D02*
Y1858250D01*
X12603230Y1794750D01*
G01Y1540750D02*
X12697710D01*
G01X12890620Y1805330D02*
X12914250Y1837080D01*
X12941810Y1852960D01*
X12973310Y1858250D01*
X13012670Y1847670D01*
X13040240Y1821210D01*
X13048110Y1789460D01*
X13044170Y1757700D01*
X13028420Y1731250D01*
X12949680Y1678330D01*
X12914250Y1641290D01*
X12890620Y1588360D01*
X12882750Y1540750D01*
X13048110D01*
G01X11390630Y2493250D02*
X11359130Y2482670D01*
X11335510Y2456210D01*
X11319760Y2424460D01*
X11307950Y2382120D01*
X11304020Y2334500D01*
X11307950Y2286870D01*
X11319760Y2244540D01*
X11335510Y2212780D01*
X11359130Y2186330D01*
X11390630Y2175750D01*
X11422120Y2186330D01*
X11445750Y2212780D01*
X11461500Y2244540D01*
X11473310Y2286870D01*
X11477240Y2334500D01*
X11473310Y2382120D01*
X11461500Y2424460D01*
X11445750Y2456210D01*
X11422120Y2482670D01*
X11390630Y2493250D01*
G01X11705590Y2165170D02*
X11697710Y2170460D01*
Y2181040D01*
X11705590Y2186330D01*
X11713470Y2181040D01*
Y2170460D01*
X11705590Y2165170D01*
G01X11933940Y2239250D02*
X11957550Y2202200D01*
X11989050Y2181040D01*
X12024490Y2175750D01*
X12055990Y2181040D01*
X12087480Y2207490D01*
X12107160Y2239250D01*
X12111100Y2271000D01*
X12103230Y2308030D01*
X12075670Y2334500D01*
X12048110Y2345090D01*
X12012670D01*
G01X12048110D02*
X12071730Y2360960D01*
X12091420Y2387410D01*
X12099290Y2419160D01*
X12091420Y2450920D01*
X12071730Y2477370D01*
X12036300Y2493250D01*
X12000870Y2487960D01*
X11965430Y2466790D01*
G01X12248900Y2239250D02*
X12272510Y2202200D01*
X12304010Y2181040D01*
X12339450Y2175750D01*
X12370950Y2181040D01*
X12402440Y2207490D01*
X12422120Y2239250D01*
X12426060Y2271000D01*
X12418190Y2308030D01*
X12390630Y2334500D01*
X12363070Y2345090D01*
X12327630D01*
G01X12363070D02*
X12386690Y2360960D01*
X12406380Y2387410D01*
X12414250Y2419160D01*
X12406380Y2450920D01*
X12386690Y2477370D01*
X12351260Y2493250D01*
X12315830Y2487960D01*
X12280390Y2466790D01*
G01X12650470Y2493250D02*
X12618970Y2482670D01*
X12595350Y2456210D01*
X12579600Y2424460D01*
X12567790Y2382120D01*
X12563860Y2334500D01*
X12567790Y2286870D01*
X12579600Y2244540D01*
X12595350Y2212780D01*
X12618970Y2186330D01*
X12650470Y2175750D01*
X12681960Y2186330D01*
X12705590Y2212780D01*
X12721340Y2244540D01*
X12733150Y2286870D01*
X12737080Y2334500D01*
X12733150Y2382120D01*
X12721340Y2424460D01*
X12705590Y2456210D01*
X12681960Y2482670D01*
X12650470Y2493250D01*
G01X12890620Y2440330D02*
X12914250Y2472080D01*
X12941810Y2487960D01*
X12973310Y2493250D01*
X13012670Y2482670D01*
X13040240Y2456210D01*
X13048110Y2424460D01*
X13044170Y2392700D01*
X13028420Y2366250D01*
X12949680Y2313330D01*
X12914250Y2276290D01*
X12890620Y2223360D01*
X12882750Y2175750D01*
X13048110D01*
G01X11233150Y5223750D02*
Y5541250D01*
X11185910Y5477750D01*
G01Y5223750D02*
X11280390D01*
G01X11548110Y5213170D02*
X11540230Y5218460D01*
Y5229040D01*
X11548110Y5234330D01*
X11555990Y5229040D01*
Y5218460D01*
X11548110Y5213170D01*
G01X11788260Y5488330D02*
X11811890Y5520080D01*
X11839450Y5535960D01*
X11870950Y5541250D01*
X11910310Y5530670D01*
X11937880Y5504210D01*
X11945750Y5472460D01*
X11941810Y5440700D01*
X11926060Y5414250D01*
X11847320Y5361330D01*
X11811890Y5324290D01*
X11788260Y5271360D01*
X11780390Y5223750D01*
X11945750D01*
G01X12118980Y5435410D02*
X12237080Y5223750D01*
G01Y5435410D02*
X12118980Y5223750D01*
G01X12492990Y5541250D02*
X12461490Y5530670D01*
X12437870Y5504210D01*
X12422120Y5472460D01*
X12410310Y5430120D01*
X12406380Y5382500D01*
X12410310Y5334870D01*
X12422120Y5292540D01*
X12437870Y5260780D01*
X12461490Y5234330D01*
X12492990Y5223750D01*
X12524480Y5234330D01*
X12548110Y5260780D01*
X12563860Y5292540D01*
X12575670Y5334870D01*
X12579600Y5382500D01*
X12575670Y5430120D01*
X12563860Y5472460D01*
X12548110Y5504210D01*
X12524480Y5530670D01*
X12492990Y5541250D01*
G01X12807950Y5213170D02*
X12800070Y5218460D01*
Y5229040D01*
X12807950Y5234330D01*
X12815830Y5229040D01*
Y5218460D01*
X12807950Y5213170D01*
G01X13036300Y5271360D02*
X13059910Y5244910D01*
X13087470Y5229040D01*
X13122910Y5223750D01*
X13158350Y5234330D01*
X13185900Y5255490D01*
X13205590Y5292540D01*
X13209520Y5334870D01*
X13201650Y5377200D01*
X13181960Y5403670D01*
X13154400Y5424830D01*
X13126850Y5430120D01*
X13099290Y5424830D01*
X13063860Y5403670D01*
X13075670Y5541250D01*
X13181960D01*
G01X11461500Y334250D02*
X11485110Y297200D01*
X11516610Y276040D01*
X11552050Y270750D01*
X11583550Y276040D01*
X11615040Y302490D01*
X11634720Y334250D01*
X11638660Y366000D01*
X11630790Y403030D01*
X11603230Y429500D01*
X11575670Y440090D01*
X11540230D01*
G01X11575670D02*
X11599290Y455960D01*
X11618980Y482410D01*
X11626850Y514160D01*
X11618980Y545920D01*
X11599290Y572370D01*
X11563860Y588250D01*
X11528430Y582960D01*
X11492990Y561790D01*
G01X11863070Y260170D02*
X11855190Y265460D01*
Y276040D01*
X11863070Y281330D01*
X11870950Y276040D01*
Y265460D01*
X11863070Y260170D01*
G01X12178030Y270750D02*
Y588250D01*
X12130790Y524750D01*
G01Y270750D02*
X12225270D01*
G01X12485110D02*
X12492990Y339540D01*
X12504800Y397740D01*
X12520550Y450670D01*
X12540230Y508870D01*
X12571730Y588250D01*
X12414250D01*
G01X12721340Y318360D02*
X12744950Y291910D01*
X12772510Y276040D01*
X12807950Y270750D01*
X12843390Y281330D01*
X12870940Y302490D01*
X12890630Y339540D01*
X12894560Y381870D01*
X12886690Y424200D01*
X12867000Y450670D01*
X12839440Y471830D01*
X12811890Y477120D01*
X12784330Y471830D01*
X12748900Y450670D01*
X12760710Y588250D01*
X12867000D01*
G01X11622910Y2853070D02*
X11654410Y2826620D01*
X11689840Y2810750D01*
X11721340D01*
X11752830Y2826620D01*
X11776460Y2853070D01*
X11788270Y2890130D01*
X11780400Y2927160D01*
X11760710Y2958910D01*
X11725270Y2980090D01*
X11678030Y2990670D01*
X11650470Y3011830D01*
X11638660Y3048870D01*
X11646540Y3085920D01*
X11666220Y3112370D01*
X11693780Y3128250D01*
X11721340D01*
X11748900Y3117670D01*
X11772520Y3091210D01*
G01X11973310Y3128250D02*
X12067790D01*
G01X12020550D02*
Y2810750D01*
G01X11973310D02*
X12067790D01*
G01X12260700Y3128250D02*
X12410320D01*
X12260700Y2810750D01*
X12410320D01*
G01X12729210D02*
X12571730D01*
Y3128250D01*
X12729210D01*
G01X12666220Y2974800D02*
X12571730D01*
G01X11622910Y5901070D02*
X11654410Y5874620D01*
X11689840Y5858750D01*
X11721340D01*
X11752830Y5874620D01*
X11776460Y5901070D01*
X11788270Y5938130D01*
X11780400Y5975160D01*
X11760710Y6006910D01*
X11725270Y6028090D01*
X11678030Y6038670D01*
X11650470Y6059830D01*
X11638660Y6096870D01*
X11646540Y6133920D01*
X11666220Y6160370D01*
X11693780Y6176250D01*
X11721340D01*
X11748900Y6165670D01*
X11772520Y6139210D01*
G01X11973310Y6176250D02*
X12067790D01*
G01X12020550D02*
Y5858750D01*
G01X11973310D02*
X12067790D01*
G01X12260700Y6176250D02*
X12410320D01*
X12260700Y5858750D01*
X12410320D01*
G01X12729210D02*
X12571730D01*
Y6176250D01*
X12729210D01*
G01X12666220Y6022800D02*
X12571730D01*
G01X14685900Y270750D02*
Y588250D01*
X14867000Y270750D01*
Y588250D01*
G01X15091410Y270750D02*
X15059910Y276040D01*
X15032360Y297200D01*
X15008730Y328960D01*
X14992980Y366000D01*
X14985110Y408330D01*
Y450670D01*
X14992980Y493000D01*
X15008730Y530040D01*
X15032360Y561790D01*
X15059910Y582960D01*
X15091410Y588250D01*
X15122900Y582960D01*
X15150460Y561790D01*
X15174090Y530040D01*
X15189840Y493000D01*
X15197710Y450670D01*
Y408330D01*
X15189840Y366000D01*
X15174090Y328960D01*
X15150460Y297200D01*
X15122900Y276040D01*
X15091410Y270750D01*
G01X15315820D02*
Y588250D01*
X15496920Y270750D01*
Y588250D01*
G01X15670150Y376580D02*
X15772510D01*
G01X15957550Y270750D02*
Y588250D01*
X16052040D01*
X16083530Y572370D01*
X16107160Y535330D01*
X16115030Y493000D01*
X16107160Y450670D01*
X16087470Y418910D01*
X16052040Y403030D01*
X15957550D01*
G01X16272510Y588250D02*
Y270750D01*
X16429990D01*
G01X16567780D02*
X16666210Y588250D01*
X16764640Y270750D01*
G01X16729200Y381870D02*
X16603210D01*
G01X16981170Y588250D02*
Y270750D01*
G01X16890620Y588250D02*
X17071720D01*
G01X17374870Y270750D02*
X17217390D01*
Y588250D01*
X17374870D01*
G01X17311880Y434800D02*
X17217390D01*
G01X17524480Y270750D02*
Y588250D01*
X17603210D01*
X17634710Y572370D01*
X17658330Y551210D01*
X17678020Y519460D01*
X17693770Y482410D01*
X17697700Y429500D01*
X17693770Y376580D01*
X17678020Y339540D01*
X17658330Y307780D01*
X17634710Y286620D01*
X17603210Y270750D01*
X17524480D01*
G01X14579600Y3287000D02*
Y112000D01*
G01Y6335000D02*
Y5065000D01*
G01X15327630Y905750D02*
Y1223250D01*
X15422120D01*
X15453610Y1207370D01*
X15477240Y1170330D01*
X15485110Y1128000D01*
X15477240Y1085670D01*
X15457550Y1053910D01*
X15422120Y1038030D01*
X15327630D01*
G01X15642590Y1223250D02*
Y905750D01*
X15800070D01*
G01X15937860D02*
X16036290Y1223250D01*
X16134720Y905750D01*
G01X16099280Y1016870D02*
X15973290D01*
G01X16351250Y1223250D02*
Y905750D01*
G01X16260700Y1223250D02*
X16441800D01*
G01X16744950Y905750D02*
X16587470D01*
Y1223250D01*
X16744950D01*
G01X16681960Y1069800D02*
X16587470D01*
G01X16894560Y905750D02*
Y1223250D01*
X16973290D01*
X17004790Y1207370D01*
X17028410Y1186210D01*
X17048100Y1154460D01*
X17063850Y1117410D01*
X17067780Y1064500D01*
X17063850Y1011580D01*
X17048100Y974540D01*
X17028410Y942780D01*
X17004790Y921620D01*
X16973290Y905750D01*
X16894560D01*
G01X15327630Y1540750D02*
Y1858250D01*
X15422120D01*
X15453610Y1842370D01*
X15477240Y1805330D01*
X15485110Y1763000D01*
X15477240Y1720670D01*
X15457550Y1688910D01*
X15422120Y1673030D01*
X15327630D01*
G01X15642590Y1858250D02*
Y1540750D01*
X15800070D01*
G01X15937860D02*
X16036290Y1858250D01*
X16134720Y1540750D01*
G01X16099280Y1651870D02*
X15973290D01*
G01X16351250Y1858250D02*
Y1540750D01*
G01X16260700Y1858250D02*
X16441800D01*
G01X16744950Y1540750D02*
X16587470D01*
Y1858250D01*
X16744950D01*
G01X16681960Y1704800D02*
X16587470D01*
G01X16894560Y1540750D02*
Y1858250D01*
X16973290D01*
X17004790Y1842370D01*
X17028410Y1821210D01*
X17048100Y1789460D01*
X17063850Y1752410D01*
X17067780Y1699500D01*
X17063850Y1646580D01*
X17048100Y1609540D01*
X17028410Y1577780D01*
X17004790Y1556620D01*
X16973290Y1540750D01*
X16894560D01*
G01X15327630Y2175750D02*
Y2493250D01*
X15422120D01*
X15453610Y2477370D01*
X15477240Y2440330D01*
X15485110Y2398000D01*
X15477240Y2355670D01*
X15457550Y2323910D01*
X15422120Y2308030D01*
X15327630D01*
G01X15642590Y2493250D02*
Y2175750D01*
X15800070D01*
G01X15937860D02*
X16036290Y2493250D01*
X16134720Y2175750D01*
G01X16099280Y2286870D02*
X15973290D01*
G01X16351250Y2493250D02*
Y2175750D01*
G01X16260700Y2493250D02*
X16441800D01*
G01X16744950Y2175750D02*
X16587470D01*
Y2493250D01*
X16744950D01*
G01X16681960Y2339800D02*
X16587470D01*
G01X16894560Y2175750D02*
Y2493250D01*
X16973290D01*
X17004790Y2477370D01*
X17028410Y2456210D01*
X17048100Y2424460D01*
X17063850Y2387410D01*
X17067780Y2334500D01*
X17063850Y2281580D01*
X17048100Y2244540D01*
X17028410Y2212780D01*
X17004790Y2191620D01*
X16973290Y2175750D01*
X16894560D01*
G01X15327630Y2810750D02*
Y3128250D01*
X15422120D01*
X15453610Y3112370D01*
X15477240Y3075330D01*
X15485110Y3033000D01*
X15477240Y2990670D01*
X15457550Y2958910D01*
X15422120Y2943030D01*
X15327630D01*
G01X15642590Y3128250D02*
Y2810750D01*
X15800070D01*
G01X15937860D02*
X16036290Y3128250D01*
X16134720Y2810750D01*
G01X16099280Y2921870D02*
X15973290D01*
G01X16351250Y3128250D02*
Y2810750D01*
G01X16260700Y3128250D02*
X16441800D01*
G01X16744950Y2810750D02*
X16587470D01*
Y3128250D01*
X16744950D01*
G01X16681960Y2974800D02*
X16587470D01*
G01X16894560Y2810750D02*
Y3128250D01*
X16973290D01*
X17004790Y3112370D01*
X17028410Y3091210D01*
X17048100Y3059460D01*
X17063850Y3022410D01*
X17067780Y2969500D01*
X17063850Y2916580D01*
X17048100Y2879540D01*
X17028410Y2847780D01*
X17004790Y2826620D01*
X16973290Y2810750D01*
X16894560D01*
G01X15327630Y5223750D02*
Y5541250D01*
X15422120D01*
X15453610Y5525370D01*
X15477240Y5488330D01*
X15485110Y5446000D01*
X15477240Y5403670D01*
X15457550Y5371910D01*
X15422120Y5356030D01*
X15327630D01*
G01X15642590Y5541250D02*
Y5223750D01*
X15800070D01*
G01X15937860D02*
X16036290Y5541250D01*
X16134720Y5223750D01*
G01X16099280Y5334870D02*
X15973290D01*
G01X16351250Y5541250D02*
Y5223750D01*
G01X16260700Y5541250D02*
X16441800D01*
G01X16744950Y5223750D02*
X16587470D01*
Y5541250D01*
X16744950D01*
G01X16681960Y5387800D02*
X16587470D01*
G01X16894560Y5223750D02*
Y5541250D01*
X16973290D01*
X17004790Y5525370D01*
X17028410Y5504210D01*
X17048100Y5472460D01*
X17063850Y5435410D01*
X17067780Y5382500D01*
X17063850Y5329580D01*
X17048100Y5292540D01*
X17028410Y5260780D01*
X17004790Y5239620D01*
X16973290Y5223750D01*
X16894560D01*
G01X15327630Y5858750D02*
Y6176250D01*
X15422120D01*
X15453610Y6160370D01*
X15477240Y6123330D01*
X15485110Y6081000D01*
X15477240Y6038670D01*
X15457550Y6006910D01*
X15422120Y5991030D01*
X15327630D01*
G01X15642590Y6176250D02*
Y5858750D01*
X15800070D01*
G01X15937860D02*
X16036290Y6176250D01*
X16134720Y5858750D01*
G01X16099280Y5969870D02*
X15973290D01*
G01X16351250Y6176250D02*
Y5858750D01*
G01X16260700Y6176250D02*
X16441800D01*
G01X16744950Y5858750D02*
X16587470D01*
Y6176250D01*
X16744950D01*
G01X16681960Y6022800D02*
X16587470D01*
G01X16894560Y5858750D02*
Y6176250D01*
X16973290D01*
X17004790Y6160370D01*
X17028410Y6139210D01*
X17048100Y6107460D01*
X17063850Y6070410D01*
X17067780Y6017500D01*
X17063850Y5964580D01*
X17048100Y5927540D01*
X17028410Y5895780D01*
X17004790Y5874620D01*
X16973290Y5858750D01*
X16894560D01*
G01X17807940Y3287000D02*
Y112000D01*
G01Y6335000D02*
Y5065000D01*
G01X18567780Y2212780D02*
X18595340Y2186330D01*
X18626830Y2175750D01*
X18658330Y2186330D01*
X18685890Y2218070D01*
X18705580Y2265710D01*
X18713450Y2313330D01*
Y2371540D01*
X18705580Y2419160D01*
X18685890Y2461500D01*
X18662270Y2482670D01*
X18634710Y2493250D01*
X18603210Y2482670D01*
X18579590Y2461500D01*
X18563840Y2429750D01*
X18555970Y2387410D01*
X18563840Y2350380D01*
X18583530Y2313330D01*
X18607150Y2292160D01*
X18634710Y2286870D01*
X18666200Y2297450D01*
X18689830Y2323910D01*
X18713450Y2371540D01*
G01X18996910Y2175750D02*
Y2493250D01*
X18851240Y2265710D01*
X19048100D01*
G01X18477230Y2810750D02*
X18445730Y2816040D01*
X18418180Y2837200D01*
X18394550Y2868960D01*
X18378800Y2906000D01*
X18370930Y2948330D01*
Y2990670D01*
X18378800Y3033000D01*
X18394550Y3070040D01*
X18418180Y3101790D01*
X18445730Y3122960D01*
X18477230Y3128250D01*
X18508720Y3122960D01*
X18536280Y3101790D01*
X18559910Y3070040D01*
X18575660Y3033000D01*
X18583530Y2990670D01*
Y2948330D01*
X18575660Y2906000D01*
X18559910Y2868960D01*
X18536280Y2837200D01*
X18508720Y2816040D01*
X18477230Y2810750D01*
G01X18508720Y2895420D02*
X18555970Y2810750D01*
G01X18792190Y3128250D02*
Y2810750D01*
G01X18701640Y3128250D02*
X18882740D01*
G01X19107150Y2810750D02*
Y2953620D01*
X19028410Y3128250D01*
G01X19185890D02*
X19107150Y2953620D01*
G01X18477230Y5858750D02*
X18445730Y5864040D01*
X18418180Y5885200D01*
X18394550Y5916960D01*
X18378800Y5954000D01*
X18370930Y5996330D01*
Y6038670D01*
X18378800Y6081000D01*
X18394550Y6118040D01*
X18418180Y6149790D01*
X18445730Y6170960D01*
X18477230Y6176250D01*
X18508720Y6170960D01*
X18536280Y6149790D01*
X18559910Y6118040D01*
X18575660Y6081000D01*
X18583530Y6038670D01*
Y5996330D01*
X18575660Y5954000D01*
X18559910Y5916960D01*
X18536280Y5885200D01*
X18508720Y5864040D01*
X18477230Y5858750D01*
G01X18508720Y5943420D02*
X18555970Y5858750D01*
G01X18792190Y6176250D02*
Y5858750D01*
G01X18701640Y6176250D02*
X18882740D01*
G01X19107150Y5858750D02*
Y6001620D01*
X19028410Y6176250D01*
G01X19185890D02*
X19107150Y6001620D01*
G01X18839430Y270750D02*
Y588250D01*
X18693760Y360710D01*
X18890620D01*
G01X18792190Y905750D02*
X18819750Y911040D01*
X18851240Y926910D01*
X18870930Y953360D01*
X18878800Y990420D01*
X18870930Y1027450D01*
X18847310Y1059200D01*
X18811870Y1075090D01*
X18772510D01*
X18748880Y1085670D01*
X18729190Y1112120D01*
X18721320Y1149160D01*
X18733140Y1186210D01*
X18760690Y1212670D01*
X18792190Y1223250D01*
X18823680Y1212670D01*
X18851240Y1186210D01*
X18863060Y1149160D01*
X18855180Y1112120D01*
X18835500Y1085670D01*
X18811870Y1075090D01*
X18772510D01*
X18737070Y1059200D01*
X18713450Y1027450D01*
X18705580Y990420D01*
X18713450Y953360D01*
X18733140Y926910D01*
X18764630Y911040D01*
X18792190Y905750D01*
G01Y1540750D02*
X18819750Y1546040D01*
X18851240Y1561910D01*
X18870930Y1588360D01*
X18878800Y1625420D01*
X18870930Y1662450D01*
X18847310Y1694200D01*
X18811870Y1710090D01*
X18772510D01*
X18748880Y1720670D01*
X18729190Y1747120D01*
X18721320Y1784160D01*
X18733140Y1821210D01*
X18760690Y1847670D01*
X18792190Y1858250D01*
X18823680Y1847670D01*
X18851240Y1821210D01*
X18863060Y1784160D01*
X18855180Y1747120D01*
X18835500Y1720670D01*
X18811870Y1710090D01*
X18772510D01*
X18737070Y1694200D01*
X18713450Y1662450D01*
X18705580Y1625420D01*
X18713450Y1588360D01*
X18733140Y1561910D01*
X18764630Y1546040D01*
X18792190Y1540750D01*
G01X18717380Y5488330D02*
X18741010Y5520080D01*
X18768570Y5535960D01*
X18800070Y5541250D01*
X18839430Y5530670D01*
X18867000Y5504210D01*
X18874870Y5472460D01*
X18870930Y5440700D01*
X18855180Y5414250D01*
X18776440Y5361330D01*
X18741010Y5324290D01*
X18717380Y5271360D01*
X18709510Y5223750D01*
X18874870D01*
M02*
